<svg viewBox="0 0 466 503" fill="none" xmlns="http://www.w3.org/2000/svg">
<path d="M2.15918 502.751L21.2266 319.992H451.143L465.174 502.751L260.838 486.169C264.521 497.592 259.389 498.606 255.773 498.606H212.035C205.405 498.606 206.203 490.315 207.431 486.169L2.15918 502.751Z" fill="url(#paint0_linear)"/>
<path d="M0 500.592L19.0674 317.832H448.984L463.014 500.592L258.679 484.01C262.362 495.433 257.23 496.446 253.614 496.446H209.876C203.246 496.446 204.044 488.155 205.271 484.01L0 500.592Z" fill="url(#paint1_linear)"/>
<path d="M233.486 471.576V307.884C233.606 307.798 233.726 307.713 233.845 307.627C322.854 244.248 377.536 259.927 396.098 268.31L398.27 292.809L411.208 438.763C323.067 419.41 266.584 454.067 233.486 471.576Z" fill="url(#paint2_linear)"/>
<path d="M234.205 471.576V307.884C234.085 307.798 233.965 307.713 233.845 307.627C144.837 244.248 90.1553 259.927 71.5925 268.31L56.4825 438.763C144.624 419.41 201.107 454.067 234.205 471.576Z" fill="url(#paint3_linear)"/>
<path fill-rule="evenodd" clip-rule="evenodd" d="M222.333 321.461V474.871V474.93L222.276 474.908C220.359 476.162 218.665 477.728 217.265 479.534C180.261 468.653 95.8846 472.504 20.1465 483.808L33.0682 333.367C38.6031 332.316 44.522 331.002 50.9401 329.578C86.3876 321.711 137.059 310.465 222.333 321.461Z" fill="url(#paint4_linear)"/>
<path fill-rule="evenodd" clip-rule="evenodd" d="M49.647 298.103C67.9587 289.834 138.737 279.487 233.845 316.606C307.738 287.767 366.945 287.579 398.27 292.809C407.264 294.311 413.959 296.259 418.044 298.103L421.024 330.524L432.794 458.557C366.478 442.229 286.293 458.931 244.961 475.085C242.926 473.708 240.63 472.687 238.163 472.112C236.773 471.787 235.328 471.604 233.845 471.579C233.726 471.577 233.606 471.576 233.486 471.576C232.132 471.576 230.809 471.707 229.528 471.957C226.919 472.468 224.487 473.473 222.333 474.871V474.93L222.276 474.908C180.813 458.809 100.972 442.289 34.8968 458.557L49.647 298.103Z" fill="url(#paint5_linear)"/>
<path fill-rule="evenodd" clip-rule="evenodd" d="M245.358 321.461V475.36C247.064 476.573 248.576 478.042 249.84 479.709C286.533 468.612 371.404 472.444 447.544 483.808L434.623 333.367C430.338 332.553 425.823 331.582 421.024 330.524C419.624 330.216 418.2 329.9 416.751 329.578C381.303 321.711 330.632 310.465 245.358 321.461Z" fill="url(#paint6_linear)"/>
<path fill-rule="evenodd" clip-rule="evenodd" d="M233.845 307.627V316.606V471.579C235.328 471.604 236.773 471.787 238.163 472.112C240.63 472.687 242.926 473.708 244.961 475.085C245.094 475.175 245.227 475.267 245.358 475.36C247.064 476.573 248.576 478.042 249.84 479.709C286.533 468.612 371.404 472.444 447.544 483.808L434.623 333.367C430.338 332.553 425.823 331.582 421.024 330.524L418.044 298.103C413.959 296.259 407.264 294.311 398.27 292.809L396.098 268.31C377.536 259.927 322.854 244.248 233.845 307.627Z" fill="url(#paint7_linear)"/>
<mask id="mask0" mask-type="alpha" maskUnits="userSpaceOnUse" x="231" y="257" width="227" height="225">
<path fill-rule="evenodd" clip-rule="evenodd" d="M457.619 257.393H231.688V468.936C238.281 469.05 244.116 472.276 247.787 477.208C248.697 478.429 249.473 479.755 250.095 481.165H457.619V257.393Z" fill="#F7EFE0"/>
</mask>
<g mask="url(#mask0)">
<path d="M243.202 478.587V318.817C343.915 305.829 396.362 323.868 432.467 330.723L445.389 481.164C365.958 469.309 277.027 465.651 243.202 478.587Z" fill="url(#paint8_linear)"/>
<path d="M229.532 480.868V317.176C326.812 278.034 399.46 288.568 418.047 296.962L432.798 457.417C356.816 438.709 262.63 463.36 229.532 480.868Z" fill="url(#paint9_linear)"/>
<path d="M227.373 479.365V315.673C324.652 276.531 397.3 287.065 415.888 295.459L430.638 455.913C354.657 437.206 260.471 461.857 227.373 479.365Z" fill="url(#paint10_linear)"/>
<path d="M233.13 470.855V307.163C322.351 243.485 377.155 259.195 395.743 267.589L410.853 438.043C322.711 418.69 266.228 453.347 233.13 470.855Z" fill="url(#paint11_linear)"/>
<path d="M231.331 468.932V305.24C320.552 241.562 375.356 257.272 393.943 265.666L409.053 436.119C320.911 416.766 264.429 451.424 231.331 468.932Z" fill="url(#paint12_linear)"/>
</g>
<mask id="mask1" mask-type="alpha" maskUnits="userSpaceOnUse" x="5" y="257" width="227" height="225">
<path fill-rule="evenodd" clip-rule="evenodd" d="M5.75705 257.393H231.688V468.936C231.568 468.934 231.449 468.933 231.329 468.933C224.587 468.933 218.606 472.186 214.868 477.208C213.959 478.429 213.182 479.755 212.56 481.165H5.75705V257.393Z" fill="#F7EFE0"/>
</mask>
<g mask="url(#mask1)">
<path d="M220.177 478.587V318.817C119.464 305.829 67.0171 323.868 30.9124 330.722L17.9907 481.163C97.4211 469.309 186.353 465.65 220.177 478.587Z" fill="url(#paint13_linear)"/>
<path d="M239.244 482.306V318.614C141.964 279.472 69.3158 290.006 50.728 298.401L35.9778 458.855C111.96 440.147 206.145 464.798 239.244 482.306Z" fill="url(#paint14_linear)"/>
<path d="M236.007 479.365V315.673C138.727 276.531 66.079 287.065 47.4912 295.459L32.741 455.913C108.723 437.206 202.909 461.857 236.007 479.365Z" fill="url(#paint15_linear)"/>
<path d="M233.846 471.574V307.882C144.625 244.204 89.8212 259.913 71.2335 268.308L56.1235 438.761C144.265 419.408 200.748 454.065 233.846 471.574Z" fill="url(#paint16_linear)"/>
<path d="M232.047 468.932V305.24C142.826 241.562 88.0219 257.271 69.4342 265.666L54.3242 436.119C142.466 416.766 198.949 451.423 232.047 468.932Z" fill="url(#paint17_linear)"/>
</g>
<path d="M21.1538 318.667C21.1538 334.734 41.9677 365.89 71.5 359.229L370.878 363.298C395.525 354.194 444.686 323.463 444.154 273.369C443.487 210.752 372.415 242.727 398.856 178.777C421.771 123.354 277.396 100.617 187.689 104.835C138.395 80.1882 -37.6012 237.203 56.459 262.711C95.7618 273.369 21.1539 273.369 21.1538 318.667Z" fill="#D0EBF6"/>
<path fill-rule="evenodd" clip-rule="evenodd" d="M142.158 56.3225L143.435 71.1643C147.198 73.1637 150.616 75.6763 153.968 79.1789L169.117 76.3224C170.611 76.1119 172.282 76.754 172.983 77.9459L174.943 81.2832C175.541 82.8509 175.373 84.2168 174.438 85.3808L164.332 96.8189C165.461 100.944 166.105 105.345 165.983 109.543L178.43 118.063C179.719 118.604 180.316 120.171 179.905 121.675C179.791 122.601 179.501 123.481 179.23 124.303C179.101 124.693 178.977 125.07 178.877 125.433C178.569 126.561 177.252 127.624 175.758 127.834L160.254 128.985C158.218 132.679 155.416 136.171 152.333 139.187L155.245 154.056C155.459 155.523 154.805 157.164 153.591 157.851L150.191 159.775C148.837 160.224 147.203 160.196 145.877 159.041L134.223 149.119C130.02 150.228 125.537 150.859 121.26 150.739L112.582 162.957C112.031 164.222 110.433 164.808 108.902 164.404C107.958 164.292 107.062 164.007 106.224 163.741C105.827 163.614 105.443 163.492 105.073 163.395C103.924 163.092 102.841 161.799 102.627 160.332L101.35 145.491C97.5863 143.491 94.0285 140.74 90.9564 137.714L75.8078 140.571C74.3135 140.781 72.6419 140.139 71.9417 138.947L69.981 135.61C69.3836 134.042 69.5519 132.676 70.486 131.512L80.5928 120.074C79.4635 115.949 78.8198 111.548 78.9419 107.35L66.4942 98.8307C65.2054 98.2896 64.608 96.7218 65.0192 95.2185C65.1333 94.2922 65.4236 93.4124 65.6947 92.5903C65.8234 92.2002 65.9478 91.8231 66.0471 91.4603C66.3555 90.3328 67.6725 89.2697 69.1668 89.0592L84.2871 87.8069C86.3236 84.113 89.1259 80.621 92.2083 77.6058L89.6798 62.8369C89.4653 61.3702 90.1193 59.7294 91.3335 59.0421L94.7333 57.1179C96.3303 56.5315 97.7219 56.6969 98.9078 57.6139L110.561 67.5355C114.764 66.4273 119.247 65.7958 123.524 65.916L132.203 53.6983C132.754 52.4334 134.351 51.847 135.882 52.2508C136.826 52.3629 137.723 52.6479 138.56 52.9141C138.957 53.0405 139.342 53.1626 139.711 53.2601C140.86 53.5628 141.943 54.8557 142.158 56.3225ZM106.061 99.3183C100.9 108.103 103.963 119.337 112.902 124.409C121.842 129.481 133.273 126.471 138.434 117.686C143.595 108.901 140.532 97.6674 131.593 92.5954C122.653 87.5234 111.223 90.5333 106.061 99.3183Z" fill="#4EA6CD"/>
<path fill-rule="evenodd" clip-rule="evenodd" d="M142.158 56.3225L143.435 71.1643C147.198 73.1637 150.616 75.6763 153.968 79.1789L169.117 76.3224C170.611 76.1119 172.282 76.754 172.983 77.9459L174.943 81.2832C175.541 82.8509 175.373 84.2168 174.438 85.3808L164.332 96.8189C165.461 100.944 166.105 105.345 165.983 109.543L178.43 118.063C179.719 118.604 180.316 120.171 179.905 121.675C179.791 122.601 179.501 123.481 179.23 124.303C179.101 124.693 178.977 125.07 178.877 125.433C178.569 126.561 177.252 127.624 175.758 127.834L160.254 128.985C158.218 132.679 155.416 136.171 152.333 139.187L155.245 154.056C155.459 155.523 154.805 157.164 153.591 157.851L150.191 159.775C148.837 160.224 147.203 160.196 145.877 159.041L134.223 149.119C130.02 150.228 125.537 150.859 121.26 150.739L112.582 162.957C112.031 164.222 110.433 164.808 108.902 164.404C107.958 164.292 107.062 164.007 106.224 163.741C105.827 163.614 105.443 163.492 105.073 163.395C103.924 163.092 102.841 161.799 102.627 160.332L101.35 145.491C97.5863 143.491 94.0285 140.74 90.9564 137.714L75.8078 140.571C74.3135 140.781 72.6419 140.139 71.9417 138.947L69.981 135.61C69.3836 134.042 69.5519 132.676 70.486 131.512L80.5928 120.074C79.4635 115.949 78.8198 111.548 78.9419 107.35L66.4942 98.8307C65.2054 98.2896 64.608 96.7218 65.0192 95.2185C65.1333 94.2922 65.4236 93.4124 65.6947 92.5903C65.8234 92.2002 65.9478 91.8231 66.0471 91.4603C66.3555 90.3328 67.6725 89.2697 69.1668 89.0592L84.2871 87.8069C86.3236 84.113 89.1259 80.621 92.2083 77.6058L89.6798 62.8369C89.4653 61.3702 90.1193 59.7294 91.3335 59.0421L94.7333 57.1179C96.3303 56.5315 97.7219 56.6969 98.9078 57.6139L110.561 67.5355C114.764 66.4273 119.247 65.7958 123.524 65.916L132.203 53.6983C132.754 52.4334 134.351 51.847 135.882 52.2508C136.826 52.3629 137.723 52.6479 138.56 52.9141C138.957 53.0405 139.342 53.1626 139.711 53.2601C140.86 53.5628 141.943 54.8557 142.158 56.3225ZM106.061 99.3183C100.9 108.103 103.963 119.337 112.902 124.409C121.842 129.481 133.273 126.471 138.434 117.686C143.595 108.901 140.532 97.6674 131.593 92.5954C122.653 87.5234 111.223 90.5333 106.061 99.3183Z" fill="url(#paint18_linear)"/>
<path fill-rule="evenodd" clip-rule="evenodd" d="M142.668 53.1946L143.945 68.0365C147.708 70.0359 151.126 72.5485 154.478 76.0511L169.627 73.1946C171.121 72.9841 172.793 73.6262 173.493 74.8181L175.454 78.1554C176.051 79.7231 175.883 81.089 174.949 82.253L164.842 93.6911C165.971 97.8166 166.615 102.217 166.493 106.416L178.94 114.935C180.229 115.476 180.827 117.044 180.415 118.547C180.301 119.473 180.011 120.353 179.74 121.175C179.611 121.565 179.487 121.942 179.388 122.305C179.079 123.433 177.762 124.496 176.268 124.706L160.765 125.858C158.728 129.551 155.926 133.043 152.843 136.059L155.755 150.929C155.969 152.395 155.315 154.036 154.101 154.723L150.701 156.648C149.347 157.096 147.713 157.069 146.387 155.913L134.733 145.992C130.53 147.1 126.047 147.731 121.77 147.611L113.092 159.829C112.541 161.094 110.944 161.68 109.412 161.276C108.469 161.164 107.572 160.879 106.735 160.613C106.337 160.487 105.953 160.364 105.583 160.267C104.435 159.964 103.352 158.671 103.137 157.205L101.86 142.363C98.0965 140.363 94.5388 137.612 91.4667 134.587L76.3181 137.443C74.8238 137.654 73.1522 137.011 72.4519 135.82L70.4913 132.482C69.8938 130.915 70.0621 129.549 70.9962 128.385L81.1031 116.947C79.9737 112.821 79.33 108.421 79.4521 104.222L67.0044 95.7029C65.7157 95.1618 65.1182 93.594 65.5294 92.0907C65.6436 91.1644 65.9338 90.2846 66.205 89.4625C66.3337 89.0724 66.4581 88.6953 66.5573 88.3324C66.8657 87.205 68.1827 86.1419 69.677 85.9314L84.7973 84.6791C86.8339 80.9852 89.6362 77.4932 92.7186 74.478L90.1901 59.7091C89.9755 58.2423 90.6295 56.6016 91.8437 55.9143L95.2435 53.9901C96.8406 53.4037 98.2321 53.5691 99.418 54.4861L111.072 64.4077C115.274 63.2995 119.757 62.668 124.035 62.7882L132.713 50.5705C133.264 49.3055 134.861 48.7192 136.393 49.123C137.336 49.2351 138.233 49.5201 139.07 49.7863C139.468 49.9127 139.852 50.0348 140.222 50.1322C141.37 50.435 142.453 51.7279 142.668 53.1946ZM106.572 96.1908C101.41 104.976 104.473 116.209 113.413 121.281C122.352 126.353 133.783 123.343 138.944 114.558C144.106 105.773 141.043 94.5399 132.103 89.4678C123.164 84.3958 111.733 87.4058 106.572 96.1908Z" fill="#FACD55"/>
<path fill-rule="evenodd" clip-rule="evenodd" d="M142.668 53.1946L143.945 68.0365C147.708 70.0359 151.126 72.5485 154.478 76.0511L169.627 73.1946C171.121 72.9841 172.793 73.6262 173.493 74.8181L175.454 78.1554C176.051 79.7231 175.883 81.089 174.949 82.253L164.842 93.6911C165.971 97.8166 166.615 102.217 166.493 106.416L178.94 114.935C180.229 115.476 180.827 117.044 180.415 118.547C180.301 119.473 180.011 120.353 179.74 121.175C179.611 121.565 179.487 121.942 179.388 122.305C179.079 123.433 177.762 124.496 176.268 124.706L160.765 125.858C158.728 129.551 155.926 133.043 152.843 136.059L155.755 150.929C155.969 152.395 155.315 154.036 154.101 154.723L150.701 156.648C149.347 157.096 147.713 157.069 146.387 155.913L134.733 145.992C130.53 147.1 126.047 147.731 121.77 147.611L113.092 159.829C112.541 161.094 110.944 161.68 109.412 161.276C108.469 161.164 107.572 160.879 106.735 160.613C106.337 160.487 105.953 160.364 105.583 160.267C104.435 159.964 103.352 158.671 103.137 157.205L101.86 142.363C98.0965 140.363 94.5388 137.612 91.4667 134.587L76.3181 137.443C74.8238 137.654 73.1522 137.011 72.4519 135.82L70.4913 132.482C69.8938 130.915 70.0621 129.549 70.9962 128.385L81.1031 116.947C79.9737 112.821 79.33 108.421 79.4521 104.222L67.0044 95.7029C65.7157 95.1618 65.1182 93.594 65.5294 92.0907C65.6436 91.1644 65.9338 90.2846 66.205 89.4625C66.3337 89.0724 66.4581 88.6953 66.5573 88.3324C66.8657 87.205 68.1827 86.1419 69.677 85.9314L84.7973 84.6791C86.8339 80.9852 89.6362 77.4932 92.7186 74.478L90.1901 59.7091C89.9755 58.2423 90.6295 56.6016 91.8437 55.9143L95.2435 53.9901C96.8406 53.4037 98.2321 53.5691 99.418 54.4861L111.072 64.4077C115.274 63.2995 119.757 62.668 124.035 62.7882L132.713 50.5705C133.264 49.3055 134.861 48.7192 136.393 49.123C137.336 49.2351 138.233 49.5201 139.07 49.7863C139.468 49.9127 139.852 50.0348 140.222 50.1322C141.37 50.435 142.453 51.7279 142.668 53.1946ZM106.572 96.1908C101.41 104.976 104.473 116.209 113.413 121.281C122.352 126.353 133.783 123.343 138.944 114.558C144.106 105.773 141.043 94.5399 132.103 89.4678C123.164 84.3958 111.733 87.4058 106.572 96.1908Z" fill="url(#paint19_linear)"/>
<path d="M94.6483 248.327C96.9246 246.592 100.201 248.144 100.244 250.979L100.479 266.184C100.503 267.719 101.544 269.046 103.036 269.442L118.689 273.604C121.613 274.382 122.18 278.244 119.607 279.862L103.593 289.931C102.876 290.382 102.347 291.074 102.103 291.879L97.4521 307.24C96.695 309.741 93.5354 310.568 91.6653 308.756L80.0513 297.502C79.3865 296.858 78.4867 296.507 77.5533 296.528L61.2472 296.902C58.6215 296.962 56.8978 294.231 58.0903 291.9L65.3293 277.752C65.765 276.9 65.8292 275.911 65.507 275.018L60.198 260.299C59.2932 257.79 61.4847 255.23 64.1315 255.705L79.4762 258.456C80.4463 258.63 81.4487 258.387 82.2349 257.788L94.6483 248.327Z" fill="#FDE79B"/>
<path d="M417.199 197.289C418.834 194.386 423.094 194.637 424.377 197.712L429.647 210.35C430.332 211.993 432.02 212.985 433.788 212.785L448.329 211.142C451.784 210.751 454.058 214.65 452.017 217.464L441.694 231.703C441.127 232.485 440.862 233.445 440.948 234.407L442.294 249.499C442.562 252.502 439.537 254.711 436.758 253.541L423.033 247.764C421.89 247.283 420.59 247.359 419.511 247.97L404.972 256.2C402.095 257.829 398.596 255.462 399.037 252.186L401.324 235.174C401.512 233.774 400.948 232.378 399.84 231.502L385.618 220.26C382.643 217.908 384.306 213.122 388.099 213.122H405.945C407.389 213.122 408.722 212.344 409.43 211.085L417.199 197.289Z" fill="#FDE79B"/>
<path d="M33.3833 148.139C34.0921 146.875 35.9453 146.984 36.5012 148.322L41.3235 159.929C41.5608 160.5 42.084 160.901 42.697 160.983L56.0837 162.772C57.4971 162.961 58.0929 164.679 57.0998 165.703L49.1312 173.915C48.7795 174.278 48.6031 174.775 48.6478 175.278L49.7418 187.594C49.8577 188.898 48.5428 189.857 47.3364 189.347L35.9198 184.523C35.4224 184.313 34.8556 184.346 34.3861 184.613L22.2133 191.53C20.9648 192.239 19.4438 191.213 19.6344 189.79L21.5507 175.483C21.6333 174.866 21.3798 174.253 20.8861 173.874L10.3671 165.81C9.13374 164.865 9.66831 162.899 11.2106 162.709L25.3799 160.959C25.928 160.891 26.4112 160.567 26.6814 160.085L33.3833 148.139Z" fill="#FDE79B"/>
<defs>
<linearGradient id="paint0_linear" x1="233.666" y1="319.992" x2="233.666" y2="502.751" gradientUnits="userSpaceOnUse">
<stop stop-color="#43AFDE"/>
<stop offset="1" stop-color="#3D789F"/>
</linearGradient>
<linearGradient id="paint1_linear" x1="231.535" y1="36.2247" x2="231.535" y2="616.214" gradientUnits="userSpaceOnUse">
<stop offset="0.168474" stop-color="#C8D9EB"/>
<stop offset="1" stop-color="#43AFDE"/>
</linearGradient>
<linearGradient id="paint2_linear" x1="233.839" y1="681.874" x2="233.839" y2="259.697" gradientUnits="userSpaceOnUse">
<stop offset="0.0001" stop-color="#8A7771"/>
<stop offset="1" stop-color="#C8D9EB"/>
</linearGradient>
<linearGradient id="paint3_linear" x1="233.839" y1="681.874" x2="233.839" y2="259.697" gradientUnits="userSpaceOnUse">
<stop offset="0.0001" stop-color="#8A7771"/>
<stop offset="1" stop-color="#C8D9EB"/>
</linearGradient>
<linearGradient id="paint4_linear" x1="233.839" y1="681.874" x2="233.839" y2="259.697" gradientUnits="userSpaceOnUse">
<stop offset="0.0001" stop-color="#8A7771"/>
<stop offset="1" stop-color="#C8D9EB"/>
</linearGradient>
<linearGradient id="paint5_linear" x1="233.839" y1="681.874" x2="233.839" y2="259.697" gradientUnits="userSpaceOnUse">
<stop offset="0.0001" stop-color="#8A7771"/>
<stop offset="1" stop-color="#C8D9EB"/>
</linearGradient>
<linearGradient id="paint6_linear" x1="233.839" y1="681.874" x2="233.839" y2="259.697" gradientUnits="userSpaceOnUse">
<stop offset="0.0001" stop-color="#8A7771"/>
<stop offset="1" stop-color="#C8D9EB"/>
</linearGradient>
<linearGradient id="paint7_linear" x1="233.839" y1="681.874" x2="233.839" y2="259.697" gradientUnits="userSpaceOnUse">
<stop offset="0.0001" stop-color="#8A7771"/>
<stop offset="1" stop-color="#C8D9EB"/>
</linearGradient>
<linearGradient id="paint8_linear" x1="482.444" y1="289.05" x2="220.897" y2="490.517" gradientUnits="userSpaceOnUse">
<stop stop-color="#F7EFE0"/>
<stop offset="1" stop-color="#C8D9EB"/>
</linearGradient>
<linearGradient id="paint9_linear" x1="340.395" y1="288.494" x2="358.249" y2="755.596" gradientUnits="userSpaceOnUse">
<stop stop-color="#C8D9EB"/>
<stop offset="1" stop-color="#8A7F71"/>
</linearGradient>
<linearGradient id="paint10_linear" x1="428.48" y1="391.942" x2="90.6628" y2="506.706" gradientUnits="userSpaceOnUse">
<stop stop-color="#F7EFE0"/>
<stop offset="0.276042" stop-color="#F3EDE1"/>
<stop offset="1" stop-color="#C8D9EB"/>
</linearGradient>
<linearGradient id="paint11_linear" x1="337.516" y1="327.659" x2="336.364" y2="740.045" gradientUnits="userSpaceOnUse">
<stop stop-color="#C8D9EB"/>
<stop offset="1" stop-color="#8A7771"/>
</linearGradient>
<linearGradient id="paint12_linear" x1="231.69" y1="363.162" x2="620.234" y2="363.162" gradientUnits="userSpaceOnUse">
<stop stop-color="white"/>
<stop offset="1" stop-color="#F7EFE0"/>
</linearGradient>
<linearGradient id="paint13_linear" x1="10.4356" y1="323.587" x2="260.111" y2="491.237" gradientUnits="userSpaceOnUse">
<stop stop-color="#F7EFE0"/>
<stop offset="1" stop-color="#C8D9EB"/>
</linearGradient>
<linearGradient id="paint14_linear" x1="137.079" y1="318.444" x2="137.079" y2="725.071" gradientUnits="userSpaceOnUse">
<stop stop-color="#C8D9EB"/>
<stop offset="1" stop-color="#8A7771"/>
</linearGradient>
<linearGradient id="paint15_linear" x1="75.9125" y1="309.556" x2="382.07" y2="391.582" gradientUnits="userSpaceOnUse">
<stop stop-color="#F8F1E3"/>
<stop offset="0.286458" stop-color="#F7EFE0"/>
<stop offset="1" stop-color="#C8D9EB"/>
</linearGradient>
<linearGradient id="paint16_linear" x1="157.237" y1="346.09" x2="164.724" y2="688.209" gradientUnits="userSpaceOnUse">
<stop stop-color="#C8D9EB"/>
<stop offset="0.0001" stop-color="#C8D9EB"/>
<stop offset="1" stop-color="#8A7771"/>
</linearGradient>
<linearGradient id="paint17_linear" x1="-5.75621" y1="316.752" x2="294.646" y2="317.832" gradientUnits="userSpaceOnUse">
<stop offset="0.0885417" stop-color="#FEFDFC"/>
<stop offset="0.953125" stop-color="#F7EFE0"/>
</linearGradient>
<linearGradient id="paint18_linear" x1="-19.6145" y1="38.0444" x2="134.205" y2="124.237" gradientUnits="userSpaceOnUse">
<stop offset="0.546875" stop-color="#1E5983"/>
<stop offset="1" stop-color="#1E5983" stop-opacity="0"/>
</linearGradient>
<linearGradient id="paint19_linear" x1="32.2905" y1="53.7945" x2="186.926" y2="110.87" gradientUnits="userSpaceOnUse">
<stop stop-color="#43AFDE"/>
<stop offset="1" stop-color="white" stop-opacity="0"/>
</linearGradient>
</defs>
</svg>
