<svg viewBox="0 0 307 312" fill="none" xmlns="http://www.w3.org/2000/svg">
<path fill-rule="evenodd" clip-rule="evenodd" d="M80.583 128.879L101.904 126.881C104.737 121.45 108.311 116.51 113.31 111.653L109.038 89.9086C108.719 87.7629 109.624 85.353 111.33 84.3335L116.106 81.4787C118.353 80.6028 120.318 80.8299 122.001 82.1599L138.553 96.5634C144.471 94.895 150.79 93.9218 156.826 94.0515L168.936 76.0656C169.7 74.2072 171.947 73.3313 174.113 73.906C175.446 74.06 176.713 74.4676 177.898 74.8485C178.46 75.0292 179.004 75.2039 179.526 75.3426C181.15 75.7736 182.693 77.6551 183.012 79.8008L184.836 102.073C190.168 104.961 195.218 108.951 199.586 113.349L220.929 109.002C223.035 108.677 225.401 109.6 226.402 111.337L229.205 116.203C229.865 118.145 229.842 120.495 228.196 122.413L214.061 139.273C215.7 145.303 216.657 151.74 216.531 157.889L234.188 170.231C236.012 171.009 236.872 173.299 236.308 175.505C236.158 176.862 235.758 178.154 235.384 179.361C235.207 179.933 235.035 180.487 234.899 181.019C234.477 182.674 232.63 184.245 230.524 184.569L209.203 186.567C206.37 191.998 202.455 197.142 198.139 201.591L202.41 223.336C202.729 225.481 201.824 227.891 200.118 228.911L195.342 231.766C193.095 232.641 191.13 232.414 189.447 231.084L172.895 216.681C166.977 218.349 160.658 219.322 154.622 219.193L142.512 237.179C141.748 239.037 139.501 239.913 137.335 239.338C136.003 239.184 134.735 238.777 133.55 238.396C132.988 238.215 132.444 238.04 131.922 237.902C130.298 237.471 128.755 235.589 128.436 233.443L126.471 211.722C121.139 208.835 116.089 204.845 111.721 200.447L90.5193 204.243C88.4132 204.567 86.0475 203.645 85.0464 201.907L82.2433 197.041C81.3831 194.751 81.6056 192.749 82.9108 191.035L97.0457 174.175C95.4069 168.146 94.4503 161.709 94.5764 155.559L76.9194 143.218C75.0951 142.439 74.2349 140.15 74.7985 137.944C74.9494 136.586 75.3493 135.294 75.7229 134.087C75.9002 133.515 76.0716 132.961 76.2076 132.429C76.6303 130.774 78.4769 129.203 80.583 128.879ZM142.781 180.297C155.466 187.62 171.58 183.095 178.773 170.19C185.966 157.284 181.515 140.886 168.831 133.562C156.146 126.239 140.032 130.764 132.839 143.67C125.646 156.575 130.097 172.974 142.781 180.297Z" fill="#4EA6CD"/>
<path fill-rule="evenodd" clip-rule="evenodd" d="M80.583 128.879L101.904 126.881C104.737 121.45 108.311 116.51 113.31 111.653L109.038 89.9086C108.719 87.7629 109.624 85.353 111.33 84.3335L116.106 81.4787C118.353 80.6028 120.318 80.8299 122.001 82.1599L138.553 96.5634C144.471 94.895 150.79 93.9218 156.826 94.0515L168.936 76.0656C169.7 74.2072 171.947 73.3313 174.113 73.906C175.446 74.06 176.713 74.4676 177.898 74.8485C178.46 75.0292 179.004 75.2039 179.526 75.3426C181.15 75.7736 182.693 77.6551 183.012 79.8008L184.836 102.073C190.168 104.961 195.218 108.951 199.586 113.349L220.929 109.002C223.035 108.677 225.401 109.6 226.402 111.337L229.205 116.203C229.865 118.145 229.842 120.495 228.196 122.413L214.061 139.273C215.7 145.303 216.657 151.74 216.531 157.889L234.188 170.231C236.012 171.009 236.872 173.299 236.308 175.505C236.158 176.862 235.758 178.154 235.384 179.361C235.207 179.933 235.035 180.487 234.899 181.019C234.477 182.674 232.63 184.245 230.524 184.569L209.203 186.567C206.37 191.998 202.455 197.142 198.139 201.591L202.41 223.336C202.729 225.481 201.824 227.891 200.118 228.911L195.342 231.766C193.095 232.641 191.13 232.414 189.447 231.084L172.895 216.681C166.977 218.349 160.658 219.322 154.622 219.193L142.512 237.179C141.748 239.037 139.501 239.913 137.335 239.338C136.003 239.184 134.735 238.777 133.55 238.396C132.988 238.215 132.444 238.04 131.922 237.902C130.298 237.471 128.755 235.589 128.436 233.443L126.471 211.722C121.139 208.835 116.089 204.845 111.721 200.447L90.5193 204.243C88.4132 204.567 86.0475 203.645 85.0464 201.907L82.2433 197.041C81.3831 194.751 81.6056 192.749 82.9108 191.035L97.0457 174.175C95.4069 168.146 94.4503 161.709 94.5764 155.559L76.9194 143.218C75.0951 142.439 74.2349 140.15 74.7985 137.944C74.9494 136.586 75.3493 135.294 75.7229 134.087C75.9002 133.515 76.0716 132.961 76.2076 132.429C76.6303 130.774 78.4769 129.203 80.583 128.879ZM142.781 180.297C155.466 187.62 171.58 183.095 178.773 170.19C185.966 157.284 181.515 140.886 168.831 133.562C156.146 126.239 140.032 130.764 132.839 143.67C125.646 156.575 130.097 172.974 142.781 180.297Z" fill="url(#paint0_linear)"/>
<path fill-rule="evenodd" clip-rule="evenodd" d="M76.0816 128.181L97.4022 126.184C100.235 120.753 103.81 115.812 108.808 110.956L104.537 89.2112C104.218 87.0655 105.123 84.6556 106.828 83.6361L111.604 80.7813C113.851 79.9054 115.816 80.1325 117.5 81.4625L134.052 95.866C139.97 94.1976 146.288 93.2244 152.325 93.3542L164.435 75.3682C165.199 73.5098 167.446 72.634 169.611 73.2086C170.944 73.3626 172.212 73.7702 173.397 74.1511C173.959 74.3318 174.502 74.5065 175.025 74.6452C176.649 75.0762 178.191 76.9577 178.51 79.1034L180.334 101.376C185.666 104.263 190.716 108.253 195.084 112.651L216.427 108.304C218.533 107.98 220.899 108.902 221.9 110.64L224.703 115.506C225.363 117.448 225.341 119.797 223.695 121.716L209.56 138.576C211.199 144.605 212.155 151.042 212.029 157.192L229.686 169.533C231.51 170.312 232.371 172.601 231.807 174.807C231.656 176.165 231.256 177.457 230.883 178.663C230.705 179.236 230.534 179.79 230.398 180.322C229.975 181.976 228.129 183.548 226.022 183.872L204.702 185.869C201.869 191.301 197.953 196.445 193.637 200.894L197.908 222.638C198.227 224.784 197.322 227.194 195.617 228.213L190.841 231.068C188.594 231.944 186.629 231.717 184.945 230.387L168.393 215.984C162.475 217.652 156.157 218.625 150.12 218.495L138.01 236.481C137.246 238.34 134.999 239.216 132.834 238.641C131.501 238.487 130.233 238.079 129.049 237.698C128.486 237.518 127.943 237.343 127.42 237.204C125.796 236.773 124.254 234.892 123.935 232.746L121.97 211.025C116.638 208.138 111.588 204.148 107.22 199.75L86.0178 203.545C83.9117 203.87 81.5461 202.947 80.545 201.209L77.7418 196.343C76.8816 194.054 77.1041 192.052 78.4093 190.337L92.5442 173.478C90.9054 167.448 89.9488 161.011 90.075 154.861L72.4179 142.52C70.5936 141.742 69.7334 139.452 70.2971 137.246C70.448 135.889 70.8478 134.597 71.2214 133.39C71.3987 132.817 71.5701 132.264 71.7062 131.731C72.1289 130.077 73.9754 128.506 76.0816 128.181ZM138.28 179.6C150.964 186.923 167.078 182.398 174.272 169.492C181.465 156.587 177.014 140.188 164.329 132.865C151.645 125.541 135.531 130.067 128.338 142.972C121.144 155.878 125.595 172.276 138.28 179.6Z" fill="#FACD55"/>
<path fill-rule="evenodd" clip-rule="evenodd" d="M76.0816 128.181L97.4022 126.184C100.235 120.753 103.81 115.812 108.808 110.956L104.537 89.2112C104.218 87.0655 105.123 84.6556 106.828 83.6361L111.604 80.7813C113.851 79.9054 115.816 80.1325 117.5 81.4625L134.052 95.866C139.97 94.1976 146.288 93.2244 152.325 93.3542L164.435 75.3682C165.199 73.5098 167.446 72.634 169.611 73.2086C170.944 73.3626 172.212 73.7702 173.397 74.1511C173.959 74.3318 174.502 74.5065 175.025 74.6452C176.649 75.0762 178.191 76.9577 178.51 79.1034L180.334 101.376C185.666 104.263 190.716 108.253 195.084 112.651L216.427 108.304C218.533 107.98 220.899 108.902 221.9 110.64L224.703 115.506C225.363 117.448 225.341 119.797 223.695 121.716L209.56 138.576C211.199 144.605 212.155 151.042 212.029 157.192L229.686 169.533C231.51 170.312 232.371 172.601 231.807 174.807C231.656 176.165 231.256 177.457 230.883 178.663C230.705 179.236 230.534 179.79 230.398 180.322C229.975 181.976 228.129 183.548 226.022 183.872L204.702 185.869C201.869 191.301 197.953 196.445 193.637 200.894L197.908 222.638C198.227 224.784 197.322 227.194 195.617 228.213L190.841 231.068C188.594 231.944 186.629 231.717 184.945 230.387L168.393 215.984C162.475 217.652 156.157 218.625 150.12 218.495L138.01 236.481C137.246 238.34 134.999 239.216 132.834 238.641C131.501 238.487 130.233 238.079 129.049 237.698C128.486 237.518 127.943 237.343 127.42 237.204C125.796 236.773 124.254 234.892 123.935 232.746L121.97 211.025C116.638 208.138 111.588 204.148 107.22 199.75L86.0178 203.545C83.9117 203.87 81.5461 202.947 80.545 201.209L77.7418 196.343C76.8816 194.054 77.1041 192.052 78.4093 190.337L92.5442 173.478C90.9054 167.448 89.9488 161.011 90.075 154.861L72.4179 142.52C70.5936 141.742 69.7334 139.452 70.2971 137.246C70.448 135.889 70.8478 134.597 71.2214 133.39C71.3987 132.817 71.5701 132.264 71.7062 131.731C72.1289 130.077 73.9754 128.506 76.0816 128.181ZM138.28 179.6C150.964 186.923 167.078 182.398 174.272 169.492C181.465 156.587 177.014 140.188 164.329 132.865C151.645 125.541 135.531 130.067 128.338 142.972C121.144 155.878 125.595 172.276 138.28 179.6Z" fill="url(#paint1_linear)"/>
<defs>
<linearGradient id="paint0_linear" x1="56.0719" y1="361.619" x2="178.294" y2="139.57" gradientUnits="userSpaceOnUse">
<stop offset="0.546875" stop-color="#1E5983"/>
<stop offset="1" stop-color="#1E5983" stop-opacity="0"/>
</linearGradient>
<linearGradient id="paint1_linear" x1="78.1471" y1="286.838" x2="158.506" y2="63.9347" gradientUnits="userSpaceOnUse">
<stop stop-color="#43AFDE"/>
<stop offset="1" stop-color="white" stop-opacity="0"/>
</linearGradient>
</defs>
</svg>
