<svg preserveAspectRatio="none" viewBox="0 0 3243 606" fill="none" xmlns="http://www.w3.org/2000/svg">
<path d="M704.047 261.714C650.17 187.187 574.412 137.637 538.536 128.342H299.52L0 0V606H1083.07C1059.11 593.227 1032.66 575.451 1003.4 555.78L1003.4 555.78C956.452 524.222 902.253 487.79 839.412 459.325C772.865 429.181 763.322 399.088 750.362 358.214C741.926 331.61 732.042 300.439 704.047 261.714Z" fill="#304159"/>
<path d="M3243 63.2803V606L2048.64 606C2097.9 564.287 2141.06 541.727 2207.96 506.752L2207.97 506.751L2207.98 506.745L2207.99 506.737C2226.73 496.94 2247.34 486.168 2270.47 473.728C2338.16 437.315 2362.88 381.1 2385.6 329.449C2408.98 276.311 2430.23 228.002 2493.95 211.053C2521.25 203.79 2542.08 174.043 2561.67 146.066C2577.65 123.25 2592.8 101.612 2609.96 94.3083L3243 63.2803Z" fill="#304159"/>
</svg>
