<svg viewBox="0 0 1007 531" fill="none" xmlns="http://www.w3.org/2000/svg">
<path fill-rule="evenodd" clip-rule="evenodd" d="M1006.51 530.5V0.0332031C705.187 1.78107 603.304 69.4604 505.005 111.5C451.668 134.311 385.005 157.826 332.506 144C238.366 119.208 186.104 237.03 180.355 254.996C180.355 340.5 -0.535877 463.15 0.000212655 530.5C0.000212655 530.5 111.5 530.5 180.355 530.5H1006.51Z" fill="#304159"/>
<path fill-rule="evenodd" clip-rule="evenodd" d="M180.355 530.5H1006.51V0.0332031C705.187 1.78107 603.304 69.4604 505.005 111.5C451.668 134.311 385.005 157.826 332.506 144C238.366 119.208 186.104 237.03 180.355 254.996C180.355 340.5 -0.535877 463.15 0.000212655 530.5C0.000212655 530.5 111.5 530.5 180.355 530.5Z" fill="#304159"/>
</svg>
