<svg width="1440" height="43" viewBox="0 0 1440 43" fill="none" xmlns="http://www.w3.org/2000/svg">
  <path fill-rule="evenodd" clip-rule="evenodd" d="M1440 43V30.687l-62.91-18.1a299.976 299.976 0 0 0-157.62-2.252l-54.98 14.13a300.012 300.012 0 0 1-161.65-3.44l-19.619-5.944a300.001 300.001 0 0 0-166.242-2.22l-37.73 10.337a300 300 0 0 1-161.549-.84L584.187 12.8a300.002 300.002 0 0 0-160.225-1.2l-43.775 11.778a284.467 284.467 0 0 1-162.132-4.256 284.468 284.468 0 0 0-178.346.63L0 33.014V43h1440z" fill="#345875"/>
  <path fill-rule="evenodd" clip-rule="evenodd" d="m0 33.015 39.71-13.264a284.468 284.468 0 0 1 178.345-.629 284.467 284.467 0 0 0 162.132 4.256L423.962 11.6a300.002 300.002 0 0 1 160.225 1.2l33.513 9.558a300 300 0 0 0 161.549.84l37.73-10.337a300.001 300.001 0 0 1 166.242 2.22l19.619 5.943a300.012 300.012 0 0 0 161.65 3.44l54.98-14.13a299.976 299.976 0 0 1 157.62 2.253l62.91 18.1V43H0v-9.985z" fill="#345875"/>
</svg>
