<svg width="564" height="28" viewBox="0 0 564 28" fill="none" xmlns="http://www.w3.org/2000/svg">
<path d="M176.239 20.7379C104.814 17.2668 51.3338 19.2916 33.5219 20.7379L0 23.4893C2.76583 22.9778 10.0898 21.4892 17.2588 19.6267C26.2201 17.2986 33.5219 19.5209 92.9319 17.3515C140.46 15.6159 164.069 12.4306 169.933 11.0549C189.847 5.21342 224.585 6.02181 248.593 7.13296C248.593 7.13296 255.961 17.8065 266.847 6.08118C277.734 -5.64417 490.216 1.91576 464.66 9.30235C537.146 3.29153 573.677 12.9684 553.277 17.3515C579.165 18.3039 553.277 22.1136 527.389 24.2829C506.678 26.0185 493.977 23.5598 490.216 22.1136C485.237 23.5598 467.846 26.7275 438.108 27.8281C408.369 28.9286 381.021 24.477 371.064 22.1136C335.882 23.1013 247.664 24.2089 176.239 20.7379Z" fill="#F2E2E2"/>
</svg>
