<svg viewBox="0 0 1529 108" fill="none" xmlns="http://www.w3.org/2000/svg">
<path opacity="0.4" fill-rule="evenodd" clip-rule="evenodd" d="M75.0676 74.0638C114.955 68.8985 234.716 61.6672 394.662 74.0638C465.916 79.5863 544.634 81.8635 616.989 82.3791C589.206 84.868 542.819 87.8246 474.108 89.7454C408.995 91.5655 371.833 91.5823 348.507 91.5928C324.172 91.6038 314.895 91.608 304.649 93.6458C288.595 96.8386 272.194 99.3905 266 100.267L341.068 95.5506C380.955 93.0713 500.716 89.6003 660.662 95.5506C751.771 98.9401 855.083 99.7827 941.695 99.5672C954.375 100.163 967.546 100.179 980.934 99.3946C1029.3 99.0891 1070.05 98.4871 1096.95 97.9089C1119.24 101.96 1180.49 109.592 1247.08 107.705C1313.68 105.819 1352.62 100.388 1363.77 97.9089C1372.19 100.388 1400.64 104.603 1447.01 101.628C1504.99 97.9089 1562.96 91.3781 1504.99 89.7454C1550.67 82.2316 1468.87 65.6426 1306.54 75.9469C1321.1 72.7254 1301.16 69.4846 1262.93 66.7739C1262.14 64.6211 1254.97 62.9074 1238.99 61.9695C1284.67 46.3158 1202.87 11.7555 1040.54 33.2227C1097.77 6.84199 621.946 -20.1577 597.568 21.7185C573.189 63.5947 556.689 25.4749 556.689 25.4749C502.928 21.5065 425.135 18.6194 380.541 39.4819C367.41 44.3951 314.541 55.7712 208.108 61.9695C142.995 65.7615 105.833 65.7965 82.5065 65.8184C58.1719 65.8413 48.8947 65.85 38.6487 70.0953C22.5946 76.7471 6.1937 82.0636 0 83.8903L75.0676 74.0638Z" fill="white"/>
</svg>
