<svg viewBox="0 0 1224 218" fill="none" xmlns="http://www.w3.org/2000/svg">
<path opacity="0.4" d="M821.5 186.7C905.1 231.1 986.333 168.2 1016.5 131.2H1223C1060.5 117.041 994.6 116.3 963 56.7003C923.5 -17.7997 929.346 166.666 807 71.4604C681.5 -26.1992 596 -18.6995 596 71.4602C547.5 90.4602 615.757 121.493 521.5 91.4604C419.5 58.9607 316.745 168.634 261.5 170.7C156 174.646 59.6666 171 1 170.7C130 186.7 139.366 165.068 264 192.041C465 235.541 388 142.7 441.5 170.7C495 198.7 537.5 235.541 628.5 198.2C667.194 182.323 673 257.041 821.5 186.7Z" fill="white" stroke="white"/>
</svg>
