<svg viewBox="0 0 564 146" fill="none" xmlns="http://www.w3.org/2000/svg">
<path opacity="0.4" d="M176.239 108.133C104.814 90.0341 51.3338 100.592 33.5219 108.133L0 122.48C2.76583 119.813 10.0898 112.051 17.2588 102.339C26.2201 90.1996 33.5219 101.787 92.9319 90.4754C140.46 81.4259 164.069 64.8168 169.933 57.6435C189.847 27.1843 224.585 31.3994 248.593 37.1933C248.593 37.1933 255.961 92.8483 266.847 31.709C277.734 -29.4303 490.216 9.9893 464.66 48.5051C537.146 17.163 573.677 67.621 553.277 90.4754C579.165 95.4416 553.277 115.306 527.389 126.618C506.678 135.668 493.977 122.848 490.216 115.306C485.237 122.848 467.846 139.365 438.108 145.103C408.369 150.842 381.021 127.63 371.064 115.306C335.882 120.457 247.664 126.232 176.239 108.133Z" fill="white"/>
</svg>
