<svg width="565" height="60" fill="none" xmlns="http://www.w3.org/2000/svg"><path d="M176.972 44.263c-71.398-7.252-124.858-3.022-142.663 0L.799 50.01c2.766-1.069 10.087-4.179 17.253-8.07 8.958-4.864 16.257-.22 75.645-4.753 47.51-3.626 71.11-10.28 76.971-13.154 19.907-12.204 54.632-10.515 78.631-8.194 0 0 7.365 22.299 18.247-2.197 10.883-24.496 223.285-8.702 197.738 6.73 72.459-12.558 108.976 7.658 88.584 16.815 25.878 1.99 0 9.948-25.879 14.48-20.703 3.626-33.398-1.51-37.158-4.532-4.977 3.022-22.362 9.64-52.089 11.939-29.727 2.299-57.065-7.001-67.019-11.939-35.168 2.064-123.353 4.378-194.751-2.873z" fill="#F2E2E2"/></svg>