<svg width="16" height="16" fill="none" xmlns="http://www.w3.org/2000/svg"><path d="M8.368.58a1.415 1.415 0 0 1 2.381.558l.996 3.268c.122.401.416.728.803.891l2.012.85c1.045.44 1.171 1.872.22 2.49l-2.252 1.46c-.348.225-.58.593-.633 1.005l-.36 2.793a1.415 1.415 0 0 1-2.294.918l-1.994-1.616a1.415 1.415 0 0 0-1.515-.17L3.589 14.08c-1.096.54-2.314-.47-1.987-1.647L2.56 8.98a1.415 1.415 0 0 0-.424-1.436L.512 6.1C-.41 5.283.083 3.76 1.31 3.636l4.08-.408c.339-.034.654-.189.888-.436L8.368.579z" fill="#fff"/></svg>