<svg width="18" height="17" fill="none" xmlns="http://www.w3.org/2000/svg"><path d="M4.25 1.874A1.511 1.511 0 0 1 6.619.8l2.437 1.706c.406.285.926.352 1.391.18l2.736-1.012c1.11-.41 2.24.555 2.006 1.715l-.593 2.95c-.088.435.02.887.295 1.235l1.866 2.362a1.511 1.511 0 0 1-1.012 2.438l-3.028.352c-.418.048-.797.27-1.046.609l-2.033 2.78c-.721.986-2.255.753-2.65-.404l-.915-2.68a1.511 1.511 0 0 0-.976-.953l-4.018-1.264C-.122 10.437-.36 8.842.676 8.128l2.551-1.754c.362-.25.598-.643.646-1.08l.377-3.42z" fill="#fff"/></svg>