<svg width="17" height="16" fill="none" xmlns="http://www.w3.org/2000/svg"><path d="M6.934 1.458C7.427.32 9.014.255 9.6 1.348l.968 1.81c.312.584.973.89 1.62.75l2.125-.461c1.256-.272 2.238 1.073 1.597 2.186l-1.573 2.73a1.481 1.481 0 0 0-.171 1.015l.527 2.778a1.48 1.48 0 0 1-1.896 1.69l-2.521-.787a1.481 1.481 0 0 0-1.301.208l-2.382 1.698c-.998.712-2.38-.029-2.34-1.254l.1-3.067a1.48 1.48 0 0 0-.675-1.292L1.247 7.78C.07 7.02.51 5.202 1.904 5.063l2.76-.276a1.48 1.48 0 0 0 1.212-.885l1.058-2.444z" fill="#fff"/></svg>