<svg width="17" height="19" fill="none" xmlns="http://www.w3.org/2000/svg"><path d="M4.876 2.243C4.923.967 6.502.4 7.35 1.357L9.73 4.046c.42.475 1.106.612 1.676.335l2.513-1.217c1.194-.578 2.456.659 1.901 1.865l-1.443 3.137c-.206.448-.164.971.112 1.38l1.495 2.222c.618.918-.011 2.16-1.118 2.203l-2.564.102a1.415 1.415 0 0 0-1.25.872l-.914 2.206c-.467 1.13-2.05 1.175-2.58.075l-1.634-3.38a1.414 1.414 0 0 0-1.01-.775l-3.402-.646c-1.249-.237-1.576-1.872-.515-2.57l3.081-2.03c.382-.252.619-.673.635-1.13l.163-4.452z" fill="#fff"/></svg>