<svg width="28" height="27" fill="none" xmlns="http://www.w3.org/2000/svg"><path d="M12.98 2.49a1.537 1.537 0 0 1 2.656.046l2.657 4.746c.246.44.693.731 1.195.78l5.438.52a1.537 1.537 0 0 1 1.08 2.456L22.65 15.47c-.272.36-.372.821-.274 1.262l1.207 5.425a1.537 1.537 0 0 1-2.004 1.786l-5.288-1.834a1.537 1.537 0 0 0-1.227.096l-6.073 3.239a1.537 1.537 0 0 1-2.253-1.203l-.614-6.143a1.537 1.537 0 0 0-.323-.799l-4.23-5.365c-.761-.964-.139-2.387 1.086-2.483l5.628-.443a1.537 1.537 0 0 0 1.194-.736l3.5-5.781z" fill="#fff"/></svg>