<svg viewBox="0 0 237 176" fill="none" xmlns="http://www.w3.org/2000/svg">
<path fill-rule="evenodd" clip-rule="evenodd" d="M155.525 169.265L165.645 153.283C170.806 153.319 175.904 152.564 181.518 150.652L195.847 163.11C197.303 164.258 199.45 164.552 200.895 163.632L202.917 162.345L204.94 161.058C206.498 159.652 207.127 158.007 206.827 156.123L202.899 137.047C206.53 133.077 209.811 128.5 212.163 123.684L230.358 121.65C232.04 121.824 233.598 120.418 234.052 118.47C234.478 117.354 234.691 116.183 234.89 115.09C234.985 114.571 235.076 114.069 235.185 113.599C235.526 112.138 234.761 110.135 233.306 108.986L217.594 98.2382C217.623 92.8258 216.723 87.1746 215.245 81.8911L227.11 66.8734C228.203 65.3478 228.481 63.0963 227.603 61.5803L226.375 59.4578L225.146 57.3354C223.979 56.0032 222.234 55.0387 220.15 55.5353L201.966 59.6374C198.177 55.8247 193.81 52.3796 189.216 49.9086L187.259 30.823C187.424 29.0586 186.081 27.4232 184.224 26.9457C183.16 26.4973 182.043 26.2728 181 26.0631C180.506 25.9635 180.027 25.8673 179.579 25.7521C178.185 25.394 176.276 26.1939 175.183 27.7195L165.063 43.7017C159.902 43.666 154.515 44.6044 149.479 46.1492L135.149 33.6915C133.694 32.5432 131.547 32.2496 130.102 33.1688L128.08 34.4557L126.057 35.7426C124.499 37.1489 123.87 38.7939 124.17 40.6776L128.098 59.7537C124.467 63.7242 121.186 68.3011 118.834 73.1167L100.639 75.1513C98.9567 74.977 97.3987 76.3833 96.9452 78.3315C96.5186 79.4472 96.3056 80.6177 96.1066 81.7113C96.0122 82.2302 95.9209 82.7318 95.8114 83.2021C95.4713 84.6632 96.2357 86.6663 97.6913 87.8147L112.939 98.4435C112.91 103.856 113.809 109.507 115.287 114.791L103.887 129.928C102.794 131.453 102.516 133.705 103.393 135.221L104.622 137.343L105.851 139.466C107.193 141.101 108.762 141.762 110.558 141.45L128.742 137.348C132.531 141.16 136.898 144.605 141.492 147.076L143.449 166.162C143.284 167.926 144.626 169.562 146.484 170.039C147.548 170.488 148.665 170.712 149.708 170.922C150.202 171.021 150.681 171.118 151.129 171.233C152.523 171.591 154.432 170.791 155.525 169.265ZM141.956 98.7044C141.69 86.2726 151.552 75.979 163.984 75.7128C176.416 75.4467 186.709 85.3088 186.976 97.7406C187.242 110.172 177.38 120.466 164.948 120.732C152.516 120.998 142.222 111.136 141.956 98.7044Z" fill="url(#paint0_linear)"/>
<path fill-rule="evenodd" clip-rule="evenodd" d="M154.526 172.512L164.646 156.53C169.807 156.566 174.905 155.811 180.519 153.899L194.849 166.356C196.304 167.505 198.451 167.798 199.896 166.879L201.918 165.592L203.941 164.305C205.499 162.899 206.128 161.254 205.828 159.37L201.9 140.294C205.531 136.324 208.812 131.747 211.164 126.931L229.359 124.897C231.041 125.071 232.599 123.665 233.053 121.716C233.479 120.601 233.692 119.43 233.891 118.337C233.986 117.818 234.077 117.316 234.187 116.846C234.527 115.385 233.762 113.381 232.307 112.233L216.595 101.485C216.624 96.0724 215.724 90.4212 214.247 85.1377L226.111 70.12C227.204 68.5944 227.482 66.343 226.605 64.8269L225.376 62.7044L224.147 60.582C222.98 59.2498 221.236 58.2853 219.151 58.7819L200.967 62.8841C197.178 59.0713 192.811 55.6262 188.217 53.1552L186.26 34.0696C186.425 32.3052 185.083 30.6698 183.225 30.1923C182.161 29.7438 181.044 29.5194 180.002 29.3097C179.507 29.2101 179.028 29.1139 178.58 28.9987C177.186 28.6406 175.277 29.4404 174.184 30.9661L164.064 46.9483C158.903 46.9126 153.516 47.851 148.48 49.3958L134.15 36.9381C132.695 35.7898 130.548 35.4961 129.103 36.4154L127.081 37.7023L125.058 38.9892C123.5 40.3955 122.871 42.0405 123.171 43.9242L127.099 63.0003C123.468 66.9708 120.187 71.5477 117.835 76.3634L99.6401 78.3979C97.9577 78.2237 96.3997 79.63 95.9462 81.5782C95.5196 82.6938 95.3066 83.8643 95.1076 84.9579C95.0132 85.4768 94.9219 85.9785 94.8125 86.4487C94.4724 87.9099 95.2367 89.913 96.6924 91.0613L111.94 101.69C111.911 107.103 112.81 112.754 114.288 118.037L102.888 133.174C101.795 134.7 101.517 136.952 102.394 138.468L103.623 140.59L104.852 142.712C106.194 144.348 107.763 145.009 109.559 144.696L127.743 140.594C131.533 144.407 135.899 147.852 140.493 150.323L142.45 169.409C142.285 171.173 143.628 172.809 145.485 173.286C146.55 173.734 147.666 173.959 148.709 174.169C149.203 174.268 149.682 174.364 150.13 174.48C151.524 174.838 153.433 174.038 154.526 172.512ZM140.452 101.713C140.186 89.2808 150.048 78.9871 162.479 78.721C174.911 78.4548 185.205 88.317 185.471 100.749C185.737 113.18 175.875 123.474 163.443 123.74C151.011 124.006 140.718 114.144 140.452 101.713Z" fill="url(#paint1_linear)"/>
<path fill-rule="evenodd" clip-rule="evenodd" d="M66.2401 16.2186L67.977 26.7067C70.722 27.9189 73.2545 29.5155 75.7974 31.8202L86.2264 28.9412C87.2592 28.708 88.4645 29.0714 89.0219 29.8802L89.8022 31.0126L90.5825 32.145C91.0894 33.227 91.0494 34.2082 90.4625 35.0886L84.0466 43.7913C85.0708 46.6633 85.7711 49.7581 85.9245 52.752L95.1121 58.1175C96.0439 58.4305 96.5508 59.5125 96.3488 60.6051C96.3217 61.2705 96.1688 61.9127 96.0259 62.5127C95.9581 62.7975 95.8926 63.0727 95.8438 63.3364C95.6924 64.1558 94.832 64.9857 93.7992 65.219L83.0253 66.9046C81.8115 69.6465 80.0508 72.2876 78.0671 74.6051L80.9483 85.0218C81.1818 86.0534 80.8178 87.2573 80.008 87.8141L78.8742 88.5936L77.7404 89.3732C76.819 89.7682 75.6748 89.8397 74.682 89.0918L65.9698 82.6842C63.0944 83.7075 59.9959 84.4073 56.9985 84.5609L51.6259 93.7384C51.3124 94.6692 50.2291 95.1756 49.1354 94.9739C48.4692 94.9469 47.8262 94.7942 47.2255 94.6516C46.9405 94.5839 46.6649 94.5185 46.4009 94.4698C45.5806 94.3186 44.7497 93.4593 44.5163 92.4277L42.7794 81.9396C40.0344 80.7275 37.3905 78.969 35.0705 76.9879L24.6415 79.8669C23.6087 80.1001 22.4034 79.7367 21.846 78.9279L21.0657 77.7955L20.2854 76.6631C19.7785 75.5811 19.8185 74.5999 20.4054 73.7195L26.8213 65.0168C25.7971 62.1448 25.0968 59.05 24.9434 56.0561L15.7558 50.6906C14.824 50.3776 14.3171 49.2956 14.5191 48.203C14.5462 47.5376 14.6991 46.8954 14.842 46.2954C14.9098 46.0106 14.9753 45.7354 15.024 45.4717C15.1755 44.6523 16.0359 43.8223 17.0687 43.5891L27.5692 41.8531C28.783 39.1112 30.5437 36.4701 32.5273 34.1526L29.9196 23.7863C29.6861 22.7547 30.0501 21.5508 30.8599 20.994L31.9937 20.2145L33.1275 19.4349C34.2108 18.9285 35.1931 18.9684 36.0745 19.5545L44.7866 25.9622C47.6621 24.9388 50.7605 24.239 53.7579 24.0855L59.1305 14.9079C59.444 13.9772 60.5273 13.4708 61.6211 13.6724C62.2872 13.6994 62.9302 13.8521 63.5309 13.9947C63.816 14.0624 64.0915 14.1278 64.3555 14.1765C65.1759 14.3277 66.0067 15.187 66.2401 16.2186ZM43.4477 48.8263C40.3388 55.365 43.1191 63.186 49.6578 66.2949C56.1965 69.4039 64.0175 66.6236 67.1265 60.0849C70.2354 53.5462 67.4551 45.7252 60.9164 42.6162C54.3777 39.5072 46.5567 42.2876 43.4477 48.8263Z" fill="url(#paint2_linear)"/>
<g style="mix-blend-mode:overlay">
<path fill-rule="evenodd" clip-rule="evenodd" d="M64.5063 15.8426L66.2433 26.3308C68.9882 27.5429 71.5207 29.1396 74.0636 31.4442L84.4927 28.5653C85.5255 28.332 86.7307 28.6954 87.2881 29.5043L88.0684 30.6367L88.8487 31.7691C89.3556 32.8511 89.3156 33.8323 88.7287 34.7126L82.3128 43.4154C83.337 46.2874 84.0373 49.3822 84.1907 52.3761L93.3783 57.7416C94.3101 58.0546 94.817 59.1366 94.615 60.2291C94.5879 60.8945 94.435 61.5367 94.2921 62.1368C94.2244 62.4215 94.1588 62.6967 94.1101 62.9605C93.9586 63.7799 93.0983 64.6098 92.0654 64.8431L81.2915 66.5287C80.0777 69.2706 78.317 71.9116 76.3333 74.2292L79.2146 84.6458C79.448 85.6774 79.084 86.8813 78.2742 87.4381L77.1404 88.2177L76.0066 88.9972C75.0853 89.3923 73.941 89.4637 72.9482 88.7158L64.236 82.3082C61.3606 83.3316 58.2622 84.0314 55.2648 84.1849L49.8921 93.3625C49.5787 94.2932 48.4954 94.7996 47.4016 94.598C46.7354 94.571 46.0925 94.4183 45.4918 94.2757C45.2067 94.208 44.9312 94.1426 44.6671 94.0939C43.8468 93.9427 43.016 93.0834 42.7826 92.0518L41.0456 81.5636C38.3007 80.3515 35.6567 78.5931 33.3367 76.612L22.9077 79.4909C21.8749 79.7242 20.6696 79.3608 20.1123 78.5519L19.3319 77.4195L18.5516 76.2871C18.0447 75.2051 18.0848 74.2239 18.6717 73.3436L25.0876 64.6408C24.0633 61.7688 23.363 58.6741 23.2096 55.6801L14.022 50.3146C13.0902 50.0016 12.5833 48.9196 12.7853 47.8271C12.8125 47.1617 12.9654 46.5195 13.1082 45.9194C13.176 45.6347 13.2415 45.3595 13.2903 45.0958C13.4418 44.2764 14.3021 43.4464 15.3349 43.2131L25.8354 41.4771C27.0492 38.7352 28.8099 36.0942 30.7936 33.7766L28.1858 23.4104C27.9524 22.3788 28.3163 21.1749 29.1262 20.6181L30.26 19.8385L31.3938 19.059C32.4771 18.5526 33.4594 18.5925 34.3407 19.1786L43.0528 25.5862C45.9283 24.5629 49.0267 23.8631 52.0241 23.7095L57.3968 14.532C57.7102 13.6012 58.7935 13.0948 59.8873 13.2965C60.5535 13.3235 61.1964 13.4761 61.7971 13.6188C62.0822 13.6865 62.3577 13.7519 62.6218 13.8006C63.4421 13.9518 64.2729 14.811 64.5063 15.8426ZM41.714 48.4503C38.605 54.989 41.3853 62.81 47.924 65.919C54.4627 69.028 62.2837 66.2476 65.3927 59.7089C68.5017 53.1702 65.7213 45.3492 59.1826 42.2403C52.6439 39.1313 44.8229 41.9116 41.714 48.4503Z" fill="url(#paint3_linear)"/>
</g>
<defs>
<linearGradient id="paint0_linear" x1="234.927" y1="97.003" x2="96.0739" y2="99.9757" gradientUnits="userSpaceOnUse">
<stop stop-color="#82BFDF"/>
<stop offset="1" stop-color="#3B769D"/>
</linearGradient>
<linearGradient id="paint1_linear" x1="196" y1="89.9999" x2="90.4999" y2="149" gradientUnits="userSpaceOnUse">
<stop stop-color="#FACF5C"/>
<stop offset="1" stop-color="#6FB8C4"/>
</linearGradient>
<linearGradient id="paint2_linear" x1="91.9281" y1="71.7016" x2="18.982" y2="37.0178" gradientUnits="userSpaceOnUse">
<stop stop-color="#82BFDF"/>
<stop offset="1" stop-color="#3B769D"/>
</linearGradient>
<linearGradient id="paint3_linear" x1="90.1943" y1="71.3257" x2="17.2482" y2="36.6418" gradientUnits="userSpaceOnUse">
<stop offset="0.166667" stop-color="#FAD05E"/>
<stop offset="1" stop-color="#9EC8BE"/>
</linearGradient>
</defs>
</svg>
