<svg viewBox="0 0 71 71" fill="none" xmlns="http://www.w3.org/2000/svg">
<g clip-path="url(#clip0)">
<path fill-rule="evenodd" clip-rule="evenodd" d="M67.5477 41.6129L60.1096 36.6267C60.1812 34.1637 59.879 31.7227 59.0357 29.0243L65.0692 22.3055C65.6268 21.6219 65.7881 20.5999 65.3695 19.9014L64.7834 18.9234L64.1973 17.9455C63.5499 17.1881 62.7799 16.8718 61.8874 16.9966L52.8396 18.6859C51.0036 16.9137 48.8775 15.3032 46.6289 14.1337L45.8614 5.42856C45.9615 4.62718 45.3141 3.86978 44.3991 3.63434C43.877 3.41984 43.3266 3.30678 42.8124 3.20115C42.5684 3.15102 42.3326 3.10256 42.1117 3.04574C41.4255 2.86915 40.4717 3.21453 39.9141 3.89818L34.673 11.2935C32.118 11.2269 29.4404 11.6013 26.9303 12.2552L19.9661 6.44566C19.2574 5.90881 18.1974 5.75422 17.4723 6.15845L16.4573 6.72438L15.4422 7.29031C14.8008 7.83426 14.327 8.65762 14.5393 9.65756L16.2831 18.3776C14.4429 20.1492 12.7701 22.2001 11.5547 24.3688L2.52333 25.117C1.69208 25.0213 0.905734 25.6461 0.660609 26.5283C0.437586 27.0319 0.319766 27.5625 0.209689 28.0582C0.15745 28.2935 0.106959 28.5209 0.0477931 28.7339C-0.136052 29.3955 0.221324 30.3146 0.930003 30.8515L8.3681 35.8377C8.2965 38.3007 8.68239 40.8814 9.35831 43.3004L3.32482 50.0192C2.76722 50.7028 2.60582 51.7248 3.02448 52.4233L3.6106 53.4012L4.19671 54.3792C4.84411 55.1366 5.61407 55.4529 6.50659 55.3281L15.5544 53.6388C17.3904 55.411 19.5164 57.0215 21.765 58.191L22.5326 66.8961C22.4325 67.6975 23.0799 68.4549 23.9948 68.6903C24.517 68.9048 25.0674 69.0179 25.5815 69.1235C25.8256 69.1737 26.0614 69.2221 26.2823 69.279C26.9685 69.4555 27.9223 69.1102 28.4799 68.4265L33.6597 61.2517C36.2147 61.3184 38.8923 60.9439 41.4024 60.29L48.4279 65.879C49.1366 66.4159 50.1966 66.5705 50.9216 66.1662L51.9367 65.6003L52.9518 65.0344C53.7381 64.4096 54.067 63.6671 53.9384 62.8068L52.1946 54.0868C54.0348 52.3152 55.7076 50.2643 56.923 48.0956L65.9544 47.3474C66.7856 47.4431 67.572 46.8183 67.8171 45.9361C68.0401 45.4325 68.1579 44.9019 68.268 44.4061C68.3203 44.1709 68.3707 43.9435 68.4299 43.7305C68.6138 43.0689 68.2564 42.1498 67.5477 41.6129ZM34.1035 46.6711C27.9321 46.6711 22.9291 41.6681 22.9291 35.4966C22.9291 29.3251 27.9321 24.3221 34.1035 24.3221C40.275 24.3221 45.278 29.3251 45.278 35.4966C45.278 41.6681 40.275 46.6711 34.1035 46.6711Z" fill="white"/>
<path fill-rule="evenodd" clip-rule="evenodd" d="M67.5477 41.6129L60.1096 36.6267C60.1812 34.1637 59.879 31.7227 59.0357 29.0243L65.0692 22.3055C65.6268 21.6219 65.7881 20.5999 65.3695 19.9014L64.7834 18.9234L64.1973 17.9455C63.5499 17.1881 62.7799 16.8718 61.8874 16.9966L52.8396 18.6859C51.0036 16.9137 48.8775 15.3032 46.6289 14.1337L45.8614 5.42856C45.9615 4.62718 45.3141 3.86978 44.3991 3.63434C43.877 3.41984 43.3266 3.30678 42.8124 3.20115C42.5684 3.15102 42.3326 3.10256 42.1117 3.04574C41.4255 2.86915 40.4717 3.21453 39.9141 3.89818L34.673 11.2935C32.118 11.2269 29.4404 11.6013 26.9303 12.2552L19.9661 6.44566C19.2574 5.90881 18.1974 5.75422 17.4723 6.15845L16.4573 6.72438L15.4422 7.29031C14.8008 7.83426 14.327 8.65762 14.5393 9.65756L16.2831 18.3776C14.4429 20.1492 12.7701 22.2001 11.5547 24.3688L2.52333 25.117C1.69208 25.0213 0.905734 25.6461 0.660609 26.5283C0.437586 27.0319 0.319766 27.5625 0.209689 28.0582C0.15745 28.2935 0.106959 28.5209 0.0477931 28.7339C-0.136052 29.3955 0.221324 30.3146 0.930003 30.8515L8.3681 35.8377C8.2965 38.3007 8.68239 40.8814 9.35831 43.3004L3.32482 50.0192C2.76722 50.7028 2.60582 51.7248 3.02448 52.4233L3.6106 53.4012L4.19671 54.3792C4.84411 55.1366 5.61407 55.4529 6.50659 55.3281L15.5544 53.6388C17.3904 55.411 19.5164 57.0215 21.765 58.191L22.5326 66.8961C22.4325 67.6975 23.0799 68.4549 23.9948 68.6903C24.517 68.9048 25.0674 69.0179 25.5815 69.1235C25.8256 69.1737 26.0614 69.2221 26.2823 69.279C26.9685 69.4555 27.9223 69.1102 28.4799 68.4265L33.6597 61.2517C36.2147 61.3184 38.8923 60.9439 41.4024 60.29L48.4279 65.879C49.1366 66.4159 50.1966 66.5705 50.9216 66.1662L51.9367 65.6003L52.9518 65.0344C53.7381 64.4096 54.067 63.6671 53.9384 62.8068L52.1946 54.0868C54.0348 52.3152 55.7076 50.2643 56.923 48.0956L65.9544 47.3474C66.7856 47.4431 67.572 46.8183 67.8171 45.9361C68.0401 45.4325 68.1579 44.9019 68.268 44.4061C68.3203 44.1709 68.3707 43.9435 68.4299 43.7305C68.6138 43.0689 68.2564 42.1498 67.5477 41.6129ZM34.1035 46.6711C27.9321 46.6711 22.9291 41.6681 22.9291 35.4966C22.9291 29.3251 27.9321 24.3221 34.1035 24.3221C40.275 24.3221 45.278 29.3251 45.278 35.4966C45.278 41.6681 40.275 46.6711 34.1035 46.6711Z" fill="url(#paint0_linear)"/>
<path fill-rule="evenodd" clip-rule="evenodd" d="M70.5478 40.6129L63.1097 35.6267C63.1813 33.1637 62.8791 30.7227 62.0357 28.0243L68.0692 21.3055C68.6268 20.6219 68.7882 19.5999 68.3696 18.9014L67.7834 17.9234L67.1973 16.9455C66.5499 16.1881 65.78 15.8718 64.8874 15.9966L55.8396 17.6859C54.0036 15.9137 51.8776 14.3032 49.629 13.1337L48.8615 4.42856C48.9616 3.62718 48.3142 2.86979 47.3992 2.63434C46.877 2.41984 46.3267 2.30678 45.8125 2.20115C45.5685 2.15102 45.3326 2.10256 45.1118 2.04574C44.4255 1.86915 43.4717 2.21453 42.9141 2.89818L37.6731 10.2935C35.118 10.2269 32.4405 10.6013 29.9304 11.2552L22.9661 5.44566C22.2575 4.90881 21.1975 4.75422 20.4724 5.15845L19.4573 5.72438L18.4422 6.29031C17.8009 6.83426 17.327 7.65762 17.5394 8.65756L19.2832 17.3776C17.4429 19.1492 15.7701 21.2001 14.5548 23.3688L5.52337 24.117C4.69213 24.0213 3.90578 24.6461 3.66066 25.5283C3.43763 26.0319 3.31981 26.5625 3.20974 27.0582C3.1575 27.2935 3.10701 27.5209 3.04784 27.7339C2.864 28.3955 3.22137 29.3146 3.93005 29.8515L11.3681 34.8377C11.2966 37.3007 11.6824 39.8814 12.3584 42.3004L6.32486 49.0192C5.76726 49.7028 5.60587 50.7247 6.02453 51.4233L6.61064 52.4012L7.19676 53.3792C7.84416 54.1366 8.61411 54.4529 9.50664 54.3281L18.5544 52.6388C20.3905 54.411 22.5165 56.0215 24.7651 57.191L25.5326 65.8961C25.4325 66.6975 26.0799 67.4549 26.9949 67.6903C27.517 67.9048 28.0674 68.0179 28.5816 68.1235C28.8256 68.1737 29.0615 68.2221 29.2823 68.279C29.9685 68.4555 30.9224 68.1102 31.48 67.4265L36.6597 60.2517C39.2148 60.3184 41.8923 59.9439 44.4024 59.29L51.428 64.879C52.1366 65.4159 53.1966 65.5705 53.9217 65.1662L54.9368 64.6003L55.9519 64.0344C56.7382 63.4096 57.0671 62.6671 56.9384 61.8068L55.1946 53.0868C57.0349 51.3152 58.7077 49.2643 59.923 47.0956L68.9544 46.3474C69.7857 46.4431 70.572 45.8183 70.8172 44.9361C71.0402 44.4325 71.158 43.9019 71.2681 43.4062C71.3203 43.1709 71.3708 42.9435 71.43 42.7305C71.6138 42.0689 71.2564 41.1498 70.5478 40.6129ZM36.5746 45.8798C30.4031 45.8798 25.4001 40.8769 25.4001 34.7054C25.4001 28.5339 30.4031 23.5309 36.5746 23.5309C42.7461 23.5309 47.7491 28.5339 47.7491 34.7054C47.7491 40.8769 42.7461 45.8798 36.5746 45.8798Z" fill="#F7EFE0"/>
<path fill-rule="evenodd" clip-rule="evenodd" d="M70.5478 40.6129L63.1097 35.6267C63.1813 33.1637 62.8791 30.7227 62.0357 28.0243L68.0692 21.3055C68.6268 20.6219 68.7882 19.5999 68.3696 18.9014L67.7834 17.9234L67.1973 16.9455C66.5499 16.1881 65.78 15.8718 64.8874 15.9966L55.8396 17.6859C54.0036 15.9137 51.8776 14.3032 49.629 13.1337L48.8615 4.42856C48.9616 3.62718 48.3142 2.86979 47.3992 2.63434C46.877 2.41984 46.3267 2.30678 45.8125 2.20115C45.5685 2.15102 45.3326 2.10256 45.1118 2.04574C44.4255 1.86915 43.4717 2.21453 42.9141 2.89818L37.6731 10.2935C35.118 10.2269 32.4405 10.6013 29.9304 11.2552L22.9661 5.44566C22.2575 4.90881 21.1975 4.75422 20.4724 5.15845L19.4573 5.72438L18.4422 6.29031C17.8009 6.83426 17.327 7.65762 17.5394 8.65756L19.2832 17.3776C17.4429 19.1492 15.7701 21.2001 14.5548 23.3688L5.52337 24.117C4.69213 24.0213 3.90578 24.6461 3.66066 25.5283C3.43763 26.0319 3.31981 26.5625 3.20974 27.0582C3.1575 27.2935 3.10701 27.5209 3.04784 27.7339C2.864 28.3955 3.22137 29.3146 3.93005 29.8515L11.3681 34.8377C11.2966 37.3007 11.6824 39.8814 12.3584 42.3004L6.32486 49.0192C5.76726 49.7028 5.60587 50.7247 6.02453 51.4233L6.61064 52.4012L7.19676 53.3792C7.84416 54.1366 8.61411 54.4529 9.50664 54.3281L18.5544 52.6388C20.3905 54.411 22.5165 56.0215 24.7651 57.191L25.5326 65.8961C25.4325 66.6975 26.0799 67.4549 26.9949 67.6903C27.517 67.9048 28.0674 68.0179 28.5816 68.1235C28.8256 68.1737 29.0615 68.2221 29.2823 68.279C29.9685 68.4555 30.9224 68.1102 31.48 67.4265L36.6597 60.2517C39.2148 60.3184 41.8923 59.9439 44.4024 59.29L51.428 64.879C52.1366 65.4159 53.1966 65.5705 53.9217 65.1662L54.9368 64.6003L55.9519 64.0344C56.7382 63.4096 57.0671 62.6671 56.9384 61.8068L55.1946 53.0868C57.0349 51.3152 58.7077 49.2643 59.923 47.0956L68.9544 46.3474C69.7857 46.4431 70.572 45.8183 70.8172 44.9361C71.0402 44.4325 71.158 43.9019 71.2681 43.4062C71.3203 43.1709 71.3708 42.9435 71.43 42.7305C71.6138 42.0689 71.2564 41.1498 70.5478 40.6129ZM36.5746 45.8798C30.4031 45.8798 25.4001 40.8769 25.4001 34.7054C25.4001 28.5339 30.4031 23.5309 36.5746 23.5309C42.7461 23.5309 47.7491 28.5339 47.7491 34.7054C47.7491 40.8769 42.7461 45.8798 36.5746 45.8798Z" fill="url(#paint1_linear)"/>
</g>
<defs>
<linearGradient id="paint0_linear" x1="34.2388" y1="3" x2="34.2388" y2="91.6711" gradientUnits="userSpaceOnUse">
<stop stop-color="#9C6B5C"/>
<stop offset="0.911458" stop-color="#43AFDE" stop-opacity="0"/>
</linearGradient>
<linearGradient id="paint1_linear" x1="36.7101" y1="-46.7047" x2="36.7101" y2="45.1758" gradientUnits="userSpaceOnUse">
<stop offset="0.5" stop-color="#F7EFE0"/>
<stop offset="1" stop-color="white" stop-opacity="0"/>
</linearGradient>
<clipPath id="clip0">
<rect width="71" height="71" fill="white"/>
</clipPath>
</defs>
</svg>
