<svg viewBox="0 0 71 69" fill="none" xmlns="http://www.w3.org/2000/svg">
<g style="mix-blend-mode:overlay">
<path fill-rule="evenodd" clip-rule="evenodd" d="M28.6128 1.38596L33.761 8.78416C36.304 8.71294 38.8243 9.01348 41.6104 9.85233L48.5476 3.85122C49.2535 3.29661 50.3086 3.13608 51.0298 3.55248L52.0396 4.13545L53.0493 4.71842C53.8313 5.36235 54.1579 6.12818 54.029 7.01592L52.2848 16.0152C54.1146 17.8413 55.7775 19.956 56.9849 22.1925L65.973 22.9559C66.8004 22.8563 67.5824 23.5003 67.8255 24.4103C68.047 24.9297 68.1637 25.4771 68.2728 25.9885C68.3245 26.2312 68.3746 26.4658 68.4332 26.6855C68.6156 27.368 68.259 28.3167 67.5531 28.8713L59.9174 34.0843C59.9862 36.6256 59.5996 39.2888 58.9245 41.7854L64.9228 48.7123C65.4771 49.4172 65.6367 50.4715 65.2194 51.1926L64.6351 52.2023L64.0507 53.2119C63.4891 53.8498 62.639 54.3211 61.6066 54.1099L52.6031 52.3755C50.774 54.2059 48.6564 55.8697 46.4172 57.0785L45.6447 66.0615C45.7435 66.8882 45.0985 67.6704 44.1876 67.9142C43.6676 68.136 43.1198 68.2532 42.6079 68.3627C42.365 68.4146 42.1302 68.4649 41.9103 68.5237C41.2272 68.7066 40.2782 68.3511 39.7239 67.6462L34.5757 60.248C32.0327 60.3193 29.3681 59.9354 26.8705 59.2632L19.9333 65.2643C19.2275 65.8189 18.1723 65.9794 17.4511 65.563L16.4413 64.98L15.4316 64.3971C14.6496 63.7531 14.323 62.9873 14.4519 62.0996L16.1961 53.1003C14.3663 51.2741 12.7034 49.1595 11.496 46.923L2.50793 46.1596C1.68052 46.2591 0.898503 45.6152 0.655408 44.7052C0.433934 44.1858 0.317205 43.6384 0.208135 43.127C0.156377 42.8843 0.106351 42.6497 0.0476735 42.43C-0.134654 41.7475 0.221952 40.7988 0.927816 40.2442L8.33577 35.0921C8.26696 32.5508 8.65359 29.8876 9.32872 27.391L3.55808 20.4032C3.00379 19.6983 2.84418 18.644 3.26154 17.9228L3.84586 16.9132L4.43019 15.9036C5.07528 15.1214 5.84192 14.7943 6.73011 14.9223L15.7335 16.6567C17.5627 14.8263 19.6803 13.1625 21.9194 11.9537L22.692 2.97073C22.5931 2.14395 23.2382 1.36183 24.1491 1.11802C24.669 0.896194 25.2169 0.779007 25.7288 0.66952C25.9717 0.617563 26.2065 0.56734 26.4263 0.508492C27.1095 0.325633 28.0585 0.681083 28.6128 1.38596ZM23.0315 34.6501C23.0315 40.7885 28.0076 45.7646 34.146 45.7646C40.2844 45.7646 45.2605 40.7885 45.2605 34.6501C45.2605 28.5118 40.2844 23.5356 34.146 23.5356C28.0076 23.5356 23.0315 28.5118 23.0315 34.6501Z" fill="#FACD55"/>
<path fill-rule="evenodd" clip-rule="evenodd" d="M28.6128 1.38596L33.761 8.78416C36.304 8.71294 38.8243 9.01348 41.6104 9.85233L48.5476 3.85122C49.2535 3.29661 50.3086 3.13608 51.0298 3.55248L52.0396 4.13545L53.0493 4.71842C53.8313 5.36235 54.1579 6.12818 54.029 7.01592L52.2848 16.0152C54.1146 17.8413 55.7775 19.956 56.9849 22.1925L65.973 22.9559C66.8004 22.8563 67.5824 23.5003 67.8255 24.4103C68.047 24.9297 68.1637 25.4771 68.2728 25.9885C68.3245 26.2312 68.3746 26.4658 68.4332 26.6855C68.6156 27.368 68.259 28.3167 67.5531 28.8713L59.9174 34.0843C59.9862 36.6256 59.5996 39.2888 58.9245 41.7854L64.9228 48.7123C65.4771 49.4172 65.6367 50.4715 65.2194 51.1926L64.6351 52.2023L64.0507 53.2119C63.4891 53.8498 62.639 54.3211 61.6066 54.1099L52.6031 52.3755C50.774 54.2059 48.6564 55.8697 46.4172 57.0785L45.6447 66.0615C45.7435 66.8882 45.0985 67.6704 44.1876 67.9142C43.6676 68.136 43.1198 68.2532 42.6079 68.3627C42.365 68.4146 42.1302 68.4649 41.9103 68.5237C41.2272 68.7066 40.2782 68.3511 39.7239 67.6462L34.5757 60.248C32.0327 60.3193 29.3681 59.9354 26.8705 59.2632L19.9333 65.2643C19.2275 65.8189 18.1723 65.9794 17.4511 65.563L16.4413 64.98L15.4316 64.3971C14.6496 63.7531 14.323 62.9873 14.4519 62.0996L16.1961 53.1003C14.3663 51.2741 12.7034 49.1595 11.496 46.923L2.50793 46.1596C1.68052 46.2591 0.898503 45.6152 0.655408 44.7052C0.433934 44.1858 0.317205 43.6384 0.208135 43.127C0.156377 42.8843 0.106351 42.6497 0.0476735 42.43C-0.134654 41.7475 0.221952 40.7988 0.927816 40.2442L8.33577 35.0921C8.26696 32.5508 8.65359 29.8876 9.32872 27.391L3.55808 20.4032C3.00379 19.6983 2.84418 18.644 3.26154 17.9228L3.84586 16.9132L4.43019 15.9036C5.07528 15.1214 5.84192 14.7943 6.73011 14.9223L15.7335 16.6567C17.5627 14.8263 19.6803 13.1625 21.9194 11.9537L22.692 2.97073C22.5931 2.14395 23.2382 1.36183 24.1491 1.11802C24.669 0.896194 25.2169 0.779007 25.7288 0.66952C25.9717 0.617563 26.2065 0.56734 26.4263 0.508492C27.1095 0.325633 28.0585 0.681083 28.6128 1.38596ZM23.0315 34.6501C23.0315 40.7885 28.0076 45.7646 34.146 45.7646C40.2844 45.7646 45.2605 40.7885 45.2605 34.6501C45.2605 28.5118 40.2844 23.5356 34.146 23.5356C28.0076 23.5356 23.0315 28.5118 23.0315 34.6501Z" fill="url(#paint0_linear)"/>
</g>
<defs>
<linearGradient id="paint0_linear" x1="-28.0494" y1="34.519" x2="68.6611" y2="17.3563" gradientUnits="userSpaceOnUse">
<stop stop-color="#43AFDE"/>
<stop offset="1" stop-color="white" stop-opacity="0"/>
</linearGradient>
</defs>
</svg>

