<svg viewBox="0 0 608 344" fill="none" xmlns="http://www.w3.org/2000/svg">
<path d="M608 342.609H418.692H1.34558C0.330139 345.942 -1.09143 345.391 1.34558 316.526C4.39191 280.445 52.2628 333.045 57.485 286.966C62.7073 240.886 80.5501 226.106 172.375 210.022C264.2 193.937 151.443 -76.8838 352.108 21.4419C503.99 95.8633 440.452 213.065 507.471 210.022C561.087 207.587 596.83 297.399 608 342.609Z" fill="url(#paint0_linear)"/>
<path fill-rule="evenodd" clip-rule="evenodd" d="M400.792 33.6643C348.773 19.7258 293.13 50.0139 279.191 102.033C273.101 124.763 285.488 150.856 294.859 170.596C299.737 180.872 303.798 189.427 304.01 194.89C304.453 206.316 304.317 215.268 304.209 222.384C304.145 226.571 304.091 230.122 304.171 233.168L300.791 232.262L295.059 273.243C293.606 283.626 300.122 293.463 310.249 296.176L313.869 297.146C311.893 313.71 335.926 320.15 342.497 304.817L345.476 305.615C355.603 308.329 366.164 303.068 370.097 293.349L385.623 254.993L383.115 254.321C384.68 251.716 386.377 248.605 388.377 244.936L388.377 244.936C391.777 238.703 396.054 230.861 402.049 221.159C404.302 217.512 411 212.559 419.339 206.392C436.81 193.472 461.483 175.224 467.57 152.509C481.508 100.49 452.811 47.6028 400.792 33.6643Z" fill="url(#paint1_linear)"/>
<path d="M340.82 301.491C335.643 320.812 306.662 313.047 311.839 293.726L340.82 301.491Z" fill="url(#paint2_linear)"/>
<path d="M276.66 101.189C290.598 49.1698 346.241 18.8817 398.261 32.8202C450.28 46.7587 478.977 99.6456 465.038 151.665C456.047 185.222 406.492 209.028 399.517 220.315C370.293 267.61 381.886 270.716 336.965 258.68C292.044 246.643 303.637 249.75 301.478 194.045C300.86 178.09 267.399 135.752 276.66 101.189Z" fill="url(#paint3_linear)"/>
<path d="M332.691 269.575L341.253 239.258C350.664 216.974 365.73 224.346 371.879 213.612C379.566 200.194 330.761 177.057 328.942 189.015C327.124 200.972 377.841 209.06 385.588 181.63C393.335 154.199 345.473 136.005 340.987 151.886C336.502 167.766 385.776 175.447 391.484 155.235C396.051 139.066 374.093 128.5 355.358 134.12" stroke="url(#paint4_linear)" stroke-width="2"/>
<path d="M292.528 272.399C291.075 282.782 297.591 292.619 307.718 295.332L342.945 304.771C353.072 307.485 363.633 302.223 367.566 292.505L383.092 254.149L298.26 231.418L292.528 272.399Z" fill="url(#paint5_linear)"/>
<defs>
<linearGradient id="paint0_linear" x1="320.34" y1="528.231" x2="320.34" y2="-115.143" gradientUnits="userSpaceOnUse">
<stop stop-color="white"/>
<stop offset="1" stop-color="white" stop-opacity="0"/>
</linearGradient>
<linearGradient id="paint1_linear" x1="393.527" y1="332.179" x2="391.839" y2="30.3476" gradientUnits="userSpaceOnUse">
<stop stop-color="#1E5983"/>
<stop offset="1" stop-color="#C8D9EB"/>
</linearGradient>
<linearGradient id="paint2_linear" x1="320.531" y1="314.176" x2="334.174" y2="255.244" gradientUnits="userSpaceOnUse">
<stop stop-color="#1E5983"/>
<stop offset="1" stop-color="#C8D9EB"/>
</linearGradient>
<linearGradient id="paint3_linear" x1="341" y1="233" x2="440" y2="-89.5" gradientUnits="userSpaceOnUse">
<stop stop-color="#F7EFE0"/>
<stop offset="1" stop-color="white"/>
</linearGradient>
<linearGradient id="paint4_linear" x1="372.058" y1="132.888" x2="334.455" y2="263.824" gradientUnits="userSpaceOnUse">
<stop stop-color="#EC8387"/>
<stop offset="1" stop-color="#43AFDE"/>
</linearGradient>
<linearGradient id="paint5_linear" x1="299.5" y1="518" x2="352.5" y2="231" gradientUnits="userSpaceOnUse">
<stop stop-color="#EC8387"/>
<stop offset="1" stop-color="#C8D9EB"/>
</linearGradient>
</defs>
</svg>
