<svg viewBox="0 0 2596 156" fill="none" xmlns="http://www.w3.org/2000/svg">
<path fill-rule="evenodd" clip-rule="evenodd" d="M0 156L1080.54 156C1068.53 140.802 1053.24 135.662 1013.58 132.235C983.824 129.664 979.947 119.465 975.098 106.705C968.959 90.5535 961.261 70.2992 897.525 56.2212C850.381 45.8078 840.455 61.6196 830.205 77.9483C824.187 87.5361 818.056 97.3022 804.213 102.042C783.054 109.286 774.344 98.817 757.767 78.8929C745.029 63.5833 727.647 42.6912 696.403 19.9635C650.281 -13.5875 566.102 4.53999 498.567 19.0833C460.815 27.2129 428.264 34.2226 410.469 30.4592C379.197 23.8457 370.108 31.5154 360.488 39.6325C354.841 44.3974 349.012 49.3166 338.405 51.5912C285.158 63.0098 241.664 51.3155 198.57 39.7286C153.328 27.5641 108.526 15.5181 53.3401 30.4592C36.8737 34.9173 17.1777 42.5458 0 49.8305V156Z" fill="#CAD0E6"/>
<path fill-rule="evenodd" clip-rule="evenodd" d="M1658.72 119.536C1627.32 136.054 1612.73 143.73 1573.55 140.532C1517.17 135.931 1449.25 148.428 1422.34 155.251L1481.04 156H2595.96L2550.5 61.5C2542 47 2502.07 10.8427 2397.34 16.8082C2362.74 18.7789 2315.05 32.1615 2266.68 45.7369C2211.96 61.0908 2156.37 76.6915 2117.84 76.3083C2046.29 75.5968 1985.89 69.3933 1935.59 64.2274C1869.45 57.435 1820.78 52.4364 1787.21 64.0745C1719.6 87.5116 1683.8 106.344 1658.72 119.536Z" fill="#CAD0E6"/>
</svg>
