<svg viewBox="0 0 263 206" fill="none" xmlns="http://www.w3.org/2000/svg">
<path d="M70.0361 147.292L0 113.675L88.7124 110.874L70.0361 147.292Z" fill="#C4C4C4"/>
<path d="M70.0361 147.292L0 113.675L88.7124 110.874L70.0361 147.292Z" fill="url(#paint0_linear)"/>
<path d="M200.769 146.36L170.887 109.941L261.467 106.206L200.769 146.36Z" fill="#C4C4C4"/>
<path d="M200.769 146.36L170.887 109.941L261.467 106.206L200.769 146.36Z" fill="url(#paint1_linear)"/>
<path d="M130.608 177.742L130.97 34.8623L211.942 150.507L146.576 187.293L130.608 177.742Z" fill="url(#paint2_linear)"/>
<path d="M131.017 33.6167L36.7273 143.108L131.017 175.333V33.6167Z" fill="url(#paint3_linear)"/>
<path d="M129.799 34.5254L35.5095 144.017L129.799 176.242V34.5254Z" fill="url(#paint4_linear)"/>
<path d="M30.8366 190.885L1.2442 115.168L123.559 132.687L262.712 107.698L235.024 183.98L128.491 205.681L30.8366 190.885Z" fill="url(#paint5_linear)"/>
<path d="M30.8366 190.885L1.2442 115.168L123.559 132.687L262.712 107.698L235.024 183.98L128.491 205.681L30.8366 190.885Z" fill="url(#paint6_linear)"/>
<path d="M29.5924 189.639L0 113.922L122.315 131.44L261.468 106.452L233.78 182.734L127.247 204.435L29.5924 189.639Z" fill="url(#paint7_linear)"/>
<path d="M29.5924 189.639L0 113.922L122.315 131.44L261.468 106.452L233.78 182.734L127.247 204.435L29.5924 189.639Z" fill="url(#paint8_linear)"/>
<path d="M129.478 3.05386L129.785 35.8558C157.965 20.0251 190.697 14.9061 203.541 14.3254C168.009 1.31184 143.587 2.25757 129.478 3.05386Z" fill="url(#paint9_linear)"/>
<path d="M129.478 1.80923L129.785 34.6111C157.965 18.7805 190.697 13.6614 203.541 13.0807C168.009 0.0672087 143.587 1.01294 129.478 1.80923Z" fill="url(#paint10_linear)"/>
<path d="M125.127 164.345C125.127 161.595 127.496 159.365 130.419 159.365C133.341 159.365 135.71 161.595 135.71 164.345" stroke="#0A446D" stroke-width="2.62241"/>
<line x1="164" y1="147.061" x2="157.061" y2="154" stroke="#0E3460" stroke-width="1.5" stroke-linecap="round" stroke-linejoin="round"/>
<line x1="163.939" y1="154" x2="157" y2="147.061" stroke="#0E3460" stroke-width="1.5" stroke-linecap="round" stroke-linejoin="round"/>
<line x1="107" y1="147.061" x2="100.061" y2="154" stroke="#0E3460" stroke-width="1.5" stroke-linecap="round" stroke-linejoin="round"/>
<line x1="106.939" y1="154" x2="100" y2="147.061" stroke="#0E3460" stroke-width="1.5" stroke-linecap="round" stroke-linejoin="round"/>
<defs>
<linearGradient id="paint0_linear" x1="44.3562" y1="110.874" x2="44.3562" y2="147.292" gradientUnits="userSpaceOnUse">
<stop stop-color="#CF425C"/>
<stop offset="1" stop-color="#3D789F"/>
</linearGradient>
<linearGradient id="paint1_linear" x1="216.177" y1="106.206" x2="216.177" y2="146.36" gradientUnits="userSpaceOnUse">
<stop stop-color="#CF425C"/>
<stop offset="1" stop-color="#3D789F"/>
</linearGradient>
<linearGradient id="paint2_linear" x1="178.312" y1="1.86086" x2="154.781" y2="313.358" gradientUnits="userSpaceOnUse">
<stop stop-color="#F7EFE0"/>
<stop offset="0.0001" stop-color="#EC8387"/>
<stop offset="1" stop-color="#CF425C"/>
</linearGradient>
<linearGradient id="paint3_linear" x1="111.119" y1="-7.46997" x2="112.987" y2="291.653" gradientUnits="userSpaceOnUse">
<stop stop-color="#EC8387"/>
<stop offset="0.557327" stop-color="#CF425C"/>
</linearGradient>
<linearGradient id="paint4_linear" x1="130.106" y1="117.347" x2="8.40232" y2="-8.40332" gradientUnits="userSpaceOnUse">
<stop stop-color="#EC8387"/>
<stop offset="1" stop-color="#F7EFE0"/>
</linearGradient>
<linearGradient id="paint5_linear" x1="131.975" y1="50.0497" x2="131.975" y2="180.157" gradientUnits="userSpaceOnUse">
<stop stop-color="#F7EFE0"/>
<stop offset="1" stop-color="#EC8387"/>
</linearGradient>
<linearGradient id="paint6_linear" x1="131.975" y1="74.3281" x2="131.975" y2="251.125" gradientUnits="userSpaceOnUse">
<stop stop-color="#EC8387"/>
<stop offset="1" stop-color="#CF425C"/>
</linearGradient>
<linearGradient id="paint7_linear" x1="128.863" y1="154.386" x2="130.73" y2="273.846" gradientUnits="userSpaceOnUse">
<stop stop-color="#CF425C"/>
<stop offset="1" stop-color="#3D789F"/>
</linearGradient>
<linearGradient id="paint8_linear" x1="-160.3" y1="145.359" x2="370.091" y2="144.737" gradientUnits="userSpaceOnUse">
<stop stop-color="#F7EFE0"/>
<stop offset="0.743124" stop-color="#EC8387"/>
<stop offset="1" stop-color="#CF425C"/>
</linearGradient>
<linearGradient id="paint9_linear" x1="111.739" y1="35.1723" x2="233.443" y2="33.9272" gradientUnits="userSpaceOnUse">
<stop stop-color="#3D789F"/>
</linearGradient>
<linearGradient id="paint10_linear" x1="111.739" y1="33.9276" x2="233.443" y2="32.6826" gradientUnits="userSpaceOnUse">
<stop stop-color="#43AFDE"/>
<stop offset="1" stop-color="#3D789F"/>
</linearGradient>
</defs>
</svg>
