<svg viewBox="0 0 247 194" fill="none" xmlns="http://www.w3.org/2000/svg">
<path d="M65.7803 138.342L0 106.768L83.3217 104.136L65.7803 138.342Z" fill="#C4C4C4"/>
<path d="M65.7803 138.342L0 106.768L83.3217 104.136L65.7803 138.342Z" fill="url(#paint0_linear)"/>
<path d="M188.57 137.465L160.504 103.26L245.579 99.7512L188.57 137.465Z" fill="#C4C4C4"/>
<path d="M188.57 137.465L160.504 103.26L245.579 99.7512L188.57 137.465Z" fill="url(#paint1_linear)"/>
<path d="M122.705 153.221L123.011 32.7434L191.287 130.256L136.17 161.275L122.705 153.221Z" fill="url(#paint2_linear)"/>
<path d="M123.057 31.5732L34.4968 134.412L123.057 164.678V31.5732Z" fill="url(#paint3_linear)"/>
<path d="M121.913 32.427L33.3535 135.265L121.913 165.532V32.427Z" fill="url(#paint4_linear)"/>
<path d="M28.9637 179.286L1.16949 108.17L116.052 124.624L246.749 101.153L220.743 172.8L120.684 193.183L28.9637 179.286Z" fill="url(#paint5_linear)"/>
<path d="M28.9637 179.286L1.16949 108.17L116.052 124.624L246.749 101.153L220.743 172.8L120.684 193.183L28.9637 179.286Z" fill="url(#paint6_linear)"/>
<path d="M27.7942 178.115L0 107L114.883 123.453L245.58 99.9832L219.574 171.63L119.515 192.012L27.7942 178.115Z" fill="url(#paint7_linear)"/>
<path d="M27.7942 178.115L0 107L114.883 123.453L245.58 99.9832L219.574 171.63L119.515 192.012L27.7942 178.115Z" fill="url(#paint8_linear)"/>
<path d="M121.614 2.86872L121.902 33.6774C148.37 18.8087 179.113 14.0007 191.176 13.4553C157.804 1.23256 134.866 2.12082 121.614 2.86872Z" fill="url(#paint9_linear)"/>
<path d="M121.614 1.69929L121.902 32.508C148.37 17.6393 179.113 12.8313 191.176 12.2859C157.804 0.0631246 134.866 0.95139 121.614 1.69929Z" fill="url(#paint10_linear)"/>
<path d="M117.523 154.36C117.523 151.777 119.748 149.683 122.493 149.683C125.238 149.683 127.463 151.777 127.463 154.36" stroke="#0E3460" stroke-width="3"/>
<circle r="2.42349" transform="matrix(-1 0 0 1 94.1357 141.496)" fill="#0E3460" stroke="#0E3460"/>
<circle r="2.42349" transform="matrix(-1 0 0 1 150.851 141.496)" fill="#0E3460" stroke="#0E3460"/>
<defs>
<linearGradient id="paint0_linear" x1="41.6609" y1="104.136" x2="41.6609" y2="138.342" gradientUnits="userSpaceOnUse">
<stop stop-color="#CF425C"/>
<stop offset="1" stop-color="#3D789F"/>
</linearGradient>
<linearGradient id="paint1_linear" x1="203.041" y1="99.7512" x2="203.041" y2="137.465" gradientUnits="userSpaceOnUse">
<stop stop-color="#CF425C"/>
<stop offset="1" stop-color="#3D789F"/>
</linearGradient>
<linearGradient id="paint2_linear" x1="162.93" y1="4.9162" x2="143.088" y2="267.574" gradientUnits="userSpaceOnUse">
<stop stop-color="#F7EFE0"/>
<stop offset="0.0001" stop-color="#EC8387"/>
<stop offset="1" stop-color="#CF425C"/>
</linearGradient>
<linearGradient id="paint3_linear" x1="104.368" y1="-7.01679" x2="106.122" y2="273.93" gradientUnits="userSpaceOnUse">
<stop stop-color="#EC8387"/>
<stop offset="0.557327" stop-color="#CF425C"/>
</linearGradient>
<linearGradient id="paint4_linear" x1="122.202" y1="110.216" x2="7.89345" y2="-7.89313" gradientUnits="userSpaceOnUse">
<stop stop-color="#EC8387"/>
<stop offset="1" stop-color="#F7EFE0"/>
</linearGradient>
<linearGradient id="paint5_linear" x1="123.956" y1="47.0082" x2="123.956" y2="169.21" gradientUnits="userSpaceOnUse">
<stop stop-color="#F7EFE0"/>
<stop offset="1" stop-color="#EC8387"/>
</linearGradient>
<linearGradient id="paint6_linear" x1="123.956" y1="69.8114" x2="123.956" y2="235.865" gradientUnits="userSpaceOnUse">
<stop stop-color="#EC8387"/>
<stop offset="1" stop-color="#CF425C"/>
</linearGradient>
<linearGradient id="paint7_linear" x1="121.032" y1="145.005" x2="122.786" y2="257.206" gradientUnits="userSpaceOnUse">
<stop stop-color="#CF425C"/>
<stop offset="1" stop-color="#3D789F"/>
</linearGradient>
<linearGradient id="paint8_linear" x1="-150.56" y1="136.527" x2="347.603" y2="135.942" gradientUnits="userSpaceOnUse">
<stop stop-color="#F7EFE0"/>
<stop offset="0.743124" stop-color="#EC8387"/>
<stop offset="1" stop-color="#CF425C"/>
</linearGradient>
<linearGradient id="paint9_linear" x1="104.953" y1="33.0354" x2="219.261" y2="31.8661" gradientUnits="userSpaceOnUse">
<stop stop-color="#3D789F"/>
</linearGradient>
<linearGradient id="paint10_linear" x1="104.953" y1="31.866" x2="219.261" y2="30.6966" gradientUnits="userSpaceOnUse">
<stop stop-color="#43AFDE"/>
<stop offset="1" stop-color="#3D789F"/>
</linearGradient>
</defs>
</svg>
