<svg viewBox="0 0 24 24" xmlns="http://www.w3.org/2000/svg"><path d="M0 4a4 4 0 0 1 4-4h16a4 4 0 0 1 4 4v16a4 4 0 0 1-4 4H4a4 4 0 0 1-4-4V4z" fill="#0A446D"/><path d="M12 4c-2.172 0-2.445.01-3.298.048-.852.04-1.433.174-1.942.372a3.917 3.917 0 0 0-1.417.923A3.927 3.927 0 0 0 4.42 6.76c-.199.508-.333 1.09-.372 1.941C4.01 9.555 4 9.827 4 12s.01 2.444.048 3.298c.04.851.174 1.433.372 1.941.204.527.478.973.923 1.418.444.445.89.719 1.416.923.51.198 1.09.333 1.942.372C9.555 19.99 9.827 20 12 20c2.173 0 2.445-.01 3.298-.048.852-.04 1.434-.174 1.943-.372a3.914 3.914 0 0 0 1.416-.923c.445-.445.718-.891.923-1.417.197-.51.332-1.09.372-1.942.038-.853.048-1.125.048-3.298s-.01-2.445-.048-3.299c-.04-.851-.175-1.433-.372-1.941a3.928 3.928 0 0 0-.923-1.417 3.91 3.91 0 0 0-1.417-.923c-.51-.198-1.091-.333-1.943-.372C14.443 4.01 14.171 4 11.998 4H12zm-.717 1.442H12c2.136 0 2.39.007 3.233.046.78.035 1.203.166 1.485.275.374.145.64.319.92.599.28.28.453.546.598.92.11.281.24.705.276 1.485.038.843.046 1.096.046 3.231s-.008 2.389-.046 3.232c-.036.78-.166 1.203-.276 1.485-.145.373-.318.639-.598.919-.28.28-.546.453-.92.598-.281.11-.705.24-1.485.276-.843.038-1.097.047-3.233.047s-2.389-.009-3.232-.047c-.78-.036-1.203-.166-1.486-.276a2.478 2.478 0 0 1-.92-.598 2.48 2.48 0 0 1-.598-.92c-.11-.281-.24-.705-.276-1.485-.038-.843-.046-1.096-.046-3.233 0-2.136.008-2.388.046-3.232.036-.78.166-1.203.276-1.485.145-.373.318-.64.598-.92.28-.28.547-.453.92-.598.282-.11.706-.24 1.486-.276.738-.034 1.024-.044 2.515-.045v.002zM16.27 6.77a.96.96 0 1 0 0 1.92.96.96 0 0 0 0-1.92zM12 7.892a4.108 4.108 0 1 0 0 8.217 4.108 4.108 0 0 0 0-8.217zm0 1.441a2.667 2.667 0 1 1 0 5.334 2.667 2.667 0 0 1 0-5.334z" fill="#fff"/></svg>
