<svg viewBox="0 0 24 24" xmlns="http://www.w3.org/2000/svg"><path d="M0 4a4 4 0 0 1 4-4h16a4 4 0 0 1 4 4v16a4 4 0 0 1-4 4H4a4 4 0 0 1-4-4V4z" fill="#0A446D"/><path d="M13.153 12.111c0 2.823-2.273 5.112-5.077 5.112C5.273 17.223 3 14.935 3 12.11 3 9.288 5.273 7 8.076 7c2.804 0 5.077 2.288 5.077 5.111zm5.57 0c0 2.658-1.137 4.812-2.54 4.812-1.4 0-2.537-2.155-2.537-4.812 0-2.656 1.136-4.811 2.538-4.811s2.538 2.155 2.538 4.811zm2.277 0c0 2.381-.4 4.311-.893 4.311s-.892-1.93-.892-4.31c0-2.381.4-4.312.892-4.312.494 0 .893 1.93.893 4.311z" fill="#fff"/></svg>
