<svg viewBox="0 0 24 24" xmlns="http://www.w3.org/2000/svg"><path d="M0 4a4 4 0 0 1 4-4h16a4 4 0 0 1 4 4v16a4 4 0 0 1-4 4H4a4 4 0 0 1-4-4V4z" fill="#0A446D"/><path fill-rule="evenodd" clip-rule="evenodd" d="M17.567 9.066c.006.136.008.271.008.406 0 4.107-2.89 8.848-8.172 8.848-1.623 0-3.132-.517-4.403-1.398.225.025.453.043.685.043 1.345 0 2.584-.498 3.567-1.336-1.256-.018-2.318-.923-2.684-2.155a2.624 2.624 0 0 0 1.3-.055c-1.316-.283-2.306-1.54-2.306-3.048v-.037c.387.228.83.37 1.302.388-.772-.56-1.28-1.514-1.28-2.592 0-.566.142-1.102.39-1.564 1.417 1.884 3.534 3.122 5.92 3.251a3.386 3.386 0 0 1-.073-.708C11.82 7.391 13.107 6 14.693 6c.826 0 1.572.376 2.096.979a5.391 5.391 0 0 0 1.825-.751 3.071 3.071 0 0 1-1.264 1.718A5.386 5.386 0 0 0 19 7.459a6.136 6.136 0 0 1-1.433 1.607z" fill="#fff"/></svg>
